<?xml version="1.0" encoding="UTF-8"?>
<svg width="52px" height="53px" viewBox="0 0 52 53" version="1.1" xmlns="http://www.w3.org/2000/svg" xmlns:xlink="http://www.w3.org/1999/xlink">
    <!-- Generator: Sketch 57.1 (83088) - https://sketch.com -->
    <title>photoshop-cc</title>
    <desc>Created with Sketch.</desc>
    <defs>
        <filter x="-27.3%" y="-27.3%" width="154.7%" height="154.7%" filterUnits="objectBoundingBox" id="filter-1">
            <feOffset dx="0" dy="2" in="SourceAlpha" result="shadowOffsetOuter1"></feOffset>
            <feGaussianBlur stdDeviation="2" in="shadowOffsetOuter1" result="shadowBlurOuter1"></feGaussianBlur>
            <feColorMatrix values="0 0 0 0 0   0 0 0 0 0   0 0 0 0 0  0 0 0 0.5 0" type="matrix" in="shadowBlurOuter1" result="shadowMatrixOuter1"></feColorMatrix>
            <feMerge>
                <feMergeNode in="shadowMatrixOuter1"></feMergeNode>
                <feMergeNode in="SourceGraphic"></feMergeNode>
            </feMerge>
        </filter>
        <radialGradient cx="32.9351254%" cy="22.4100935%" fx="32.9351254%" fy="22.4100935%" r="78.2352368%" gradientTransform="translate(0.329351,0.224101),scale(0.971429,1.000000),translate(-0.329351,-0.224101)" id="radialGradient-2">
            <stop stop-color="#34364E" stop-opacity="0.98" offset="0%"></stop>
            <stop stop-color="#0C0824" offset="100%"></stop>
        </radialGradient>
    </defs>
    <g id="Page-1" stroke="none" stroke-width="1" fill="none" fill-rule="evenodd">
        <g id="Desktop" transform="translate(-934.000000, -1585.000000)" fill-rule="nonzero">
            <g id="SKILLS" transform="translate(1.000000, 1241.000000)">
                <g id="Icone" transform="translate(659.000000, 208.000000)">
                    <g id="photoshop-cc" filter="url(#filter-1)" transform="translate(278.021724, 138.434253)">
                        <polygon id="Path" fill="url(#radialGradient-2)" points="2.31397459 2.31397459 42.8085299 2.31397459 42.8085299 41.6515426 2.31397459 41.6515426"></polygon>
                        <path d="M1.83187193,1.87883977 L42.1336453,1.87883977 L42.1336453,42.0866017 L1.83187193,42.0866017 L1.83187193,1.87883977 Z M0,43.9655172 L43.9655172,43.9655172 L43.9655172,0 L0,0 L0,43.9655172 Z M29.6400911,18.0371042 C28.1928658,18.0371042 27.6983202,18.788625 27.6983202,19.4086428 C27.6983202,20.0850191 28.0280172,20.554748 29.9698621,21.5881364 C32.8459224,23.0161091 33.7435788,24.3876478 33.7435788,26.3980662 C33.7435788,29.404225 31.5086699,31.020059 28.4860037,31.020059 C26.8922463,31.020059 25.518287,30.681833 24.7306034,30.2121798 C24.6023879,30.1558215 24.5840714,30.0618908 24.5840714,29.9115261 L24.5840714,27.1495869 C24.5840714,26.9617257 24.6756539,26.9052916 24.8039433,26.9992979 C25.9580308,27.7696806 27.2769667,28.1078308 28.4860037,28.1078308 C29.933229,28.1078308 30.5377475,27.4878129 30.5377475,26.6422858 C30.5377475,25.9659095 30.1163941,25.3646778 28.2661318,24.3876478 C25.664819,23.1100398 24.5840714,21.8136456 24.5840714,19.6529382 C24.5840714,17.2291493 26.4343337,15.2188067 29.6400911,15.2188067 C31.215532,15.2188067 32.3146699,15.463102 32.9191884,15.7448939 C33.0657204,15.8388246 33.1023535,15.9891136 33.1023535,16.1206164 L33.1023535,18.6946186 C33.1023535,18.8449076 33.0107709,18.938914 32.827532,18.8824798 C32.021532,18.3565441 30.8308116,18.0371042 29.6400911,18.0371042 L29.6400911,18.0371042 Z M13.8857562,20.2729561 C14.3071096,20.3105284 14.6368805,20.3105284 15.3696145,20.3105284 C17.5130147,20.3105284 19.5280517,19.5402215 19.5280517,16.5528488 C19.5280517,14.1667079 18.0808264,12.9641686 15.6444359,12.9641686 C14.9117019,12.9641686 14.2155271,13.0017409 13.8857562,13.020527 L13.8857562,20.2729561 Z M10.6249754,10.2961601 C10.6249754,10.1646572 10.8815541,10.0706509 11.0280123,10.0706509 C12.2004901,10.0142925 13.9407795,9.97672024 15.754335,9.97672024 C20.8286712,9.97672024 22.8070751,12.83259 22.8070751,16.4776286 C22.8070751,21.2499104 19.4363953,23.297901 15.2963485,23.297901 C14.6002475,23.297901 14.362133,23.2603288 13.8674397,23.2603288 L13.8674397,30.4751856 C13.8674397,30.6254746 13.8124902,30.7006191 13.6476416,30.7006191 L10.8448473,30.7006191 C10.6983153,30.7006191 10.6249754,30.6442607 10.6249754,30.4751856 L10.6249754,10.2961601 L10.6249754,10.2961601 Z" id="Shape" fill="#31C5F0"></path>
                    </g>
                </g>
            </g>
        </g>
    </g>
</svg>