<?xml version="1.0" encoding="UTF-8"?>
<svg width="200px" height="179px" viewBox="0 0 200 179" version="1.1" xmlns="http://www.w3.org/2000/svg" xmlns:xlink="http://www.w3.org/1999/xlink">
    <!-- Generator: Sketch 57.1 (83088) - https://sketch.com -->
    <title>cei-logo</title>
    <desc>Created with Sketch.</desc>
    <g id="Page-1" stroke="none" stroke-width="1" fill="none" fill-rule="evenodd">
        <g id="Desktop" transform="translate(-860.000000, -866.000000)" fill="#FCD882" fill-rule="nonzero">
            <g id="PORTFOLIO" transform="translate(457.000000, 655.000000)">
                <g id="Works-List" transform="translate(33.000000, 160.000000)">
                    <g id="CEI" transform="translate(370.000000, 51.000000)">
                        <g id="cei-logo">
                            <path d="M61.8304965,0 C62.99167,0.574054732 64.1403308,1.15060535 64.8735718,2.30121071 C66.9131329,5.49095831 65.5542597,9.32714145 61.870537,10.5376482 C58.4370672,11.655807 55.1212163,12.9786287 52.0981612,14.9753408 C41.5725243,21.8515182 35.4563434,31.4681829 34.3302054,44.0200144 C33.2616255,55.9229145 37.1380429,66.1710394 45.5440378,74.6046522 C57.258376,86.3577988 75.7120249,89.0284013 90.4143827,81.2961336 C91.943428,80.492457 91.9159001,80.5224077 90.7522242,79.1571558 C84.7987077,72.1287292 81.0173864,64.0744917 79.6134676,54.9819639 C77.964301,44.2895705 79.6860409,34.101347 84.7211293,24.5171288 C86.6981272,20.7533265 88.8853375,17.0544173 92.1686556,14.2839793 C97.904452,9.42947295 105.852484,10.2755797 110.617299,16.1284421 C117.078829,24.0603809 120.862653,33.100495 121.695995,43.3336446 C122.809621,57.0036349 118.707976,69.0088665 109.911586,79.4616544 C109.093259,80.4325556 109.358527,80.7370542 110.309488,81.2362323 C124.30363,88.5716534 141.30331,86.8070591 153.285419,76.5689177 C160.990706,69.9872554 165.547811,61.5935769 166.593868,51.4952054 C167.66495,41.2495763 164.962219,31.9848321 158.648338,23.7908248 C157.807489,22.7001208 156.956629,21.629384 156.896568,20.151817 C156.781452,17.4961899 158.012696,15.4670312 160.367576,14.5235847 C162.527258,13.6575108 165.027285,14.3563601 166.646421,16.3555681 C169.650827,20.0298906 172.108553,24.1169144 173.943796,28.4905859 C176.831714,35.4441359 178.170567,42.6922008 177.677569,50.184863 C176.92681,61.5960728 172.782622,71.6644936 165.047305,80.1854625 C156.60127,89.4851492 146.103161,94.9112143 133.623048,96.2764663 C122.394201,97.5019483 111.896092,95.0584719 102.316411,89.0383849 C100.965045,88.1897822 100.081652,88.1298808 98.6927487,89.0059383 C91.6231043,93.4710857 83.8877871,95.8995868 75.4993099,96.441195 C50.091133,98.0884825 27.3656672,79.6188955 23.7019647,54.4777941 C20.2824569,30.9345997 34.2312144,8.32051561 56.8429562,0.748767042 C57.5111315,0.524136929 58.1667941,0.249589014 58.8274617,0 L61.8304965,0 Z M110.920105,46.3162333 C110.985171,44.9784362 110.757441,42.6248118 110.309488,40.2886586 C109.113492,33.9165314 106.309191,27.9534431 102.161254,22.9621893 C101.135217,21.7142442 99.9965663,21.6942771 98.8679257,22.8573619 C98.6102833,23.1275107 98.3687896,23.412534 98.1446948,23.7109563 C92.0810671,31.647887 89.3057624,40.5607107 90.1165818,50.5467671 C90.7972697,58.9129909 93.977984,66.2234531 99.4660301,72.5505346 C100.467042,73.7011399 100.539615,73.6736851 101.533119,72.5056086 C107.711863,65.2625354 110.947633,56.9187746 110.920105,46.3162333 Z" id="Shape"></path>
                            <path d="M0,127.368297 C0.0993525333,126.717778 0.168899307,126.059811 0.30550904,125.419225 C0.988557706,122.191463 2.68996984,119.651462 5.73015736,118.298285 C10.6704621,116.098441 15.501479,116.334316 19.8878934,119.698637 C22.0165214,121.329898 23.0572392,123.671267 23.178946,126.382588 C23.2211708,127.338502 22.8014064,127.76556 21.9097174,127.830115 C20.3026902,127.941845 18.6807601,128.038678 17.0861519,128.152891 C16.2689773,128.209998 15.9361463,127.867358 15.8243747,127.02814 C15.4741571,124.363995 13.9590309,123.221864 11.17716,123.395666 C8.89205173,123.539674 7.53092202,125.044308 7.5085677,127.542099 C7.48124576,130.809588 7.47627813,134.074593 7.5085677,137.342082 C7.53340584,139.750489 9.02121002,141.242709 11.4578309,141.409062 C13.7479068,141.565485 15.4989952,140.229688 15.7995366,137.900733 C15.953533,136.718876 16.4925205,136.487966 17.5382059,136.587282 C18.9763339,136.723841 20.424397,136.753636 21.8699764,136.835572 C22.8361798,136.880264 23.2360737,137.33215 23.1839136,138.342688 C23.0961162,140.772426 22.0462995,143.067771 20.265433,144.723726 C15.794569,148.976923 7.10122232,148.736083 2.83651483,144.284254 C1.29406675,142.670373 0.486827413,140.718818 0.213607947,138.521457 C0.16393168,138.114262 0.0794820266,137.712033 0.00993525333,137.307321 L0,127.368297 Z" id="Path"></path>
                            <path d="M199.987495,127.763824 C198.139326,132.546317 195.818484,134.139636 190.689125,134.142169 C188.565855,134.142169 186.437584,134.180166 184.316815,134.126971 C183.331458,134.10164 183.011342,134.468939 183.023846,135.451782 C183.063861,138.998122 183.003839,142.544461 183.056358,146.090801 C183.076365,147.281358 182.661215,147.793044 181.475785,147.772779 C180.062773,147.749981 179.712646,147.501737 179.710145,146.13893 C179.710145,136.941245 179.710145,127.743559 179.710145,118.545874 C179.710145,117.560498 179.960236,116.884161 181.088144,116.901893 C184.917032,116.960154 188.750922,116.714443 192.574808,117.036147 C196.576259,117.373049 198.909605,119.683236 200,123.465154 L199.987495,127.763824 Z M183.041352,125.504299 C183.041352,127.064689 183.058859,128.625078 183.041352,130.185468 C183.041352,130.912467 183.291443,131.279767 184.041715,131.272167 C186.665166,131.246836 189.293619,131.353227 191.909567,131.218972 C195.0357,131.059387 196.823849,128.787197 196.74382,125.342181 C196.668792,122.198604 194.630554,120.022671 191.621963,119.969476 C189.166073,119.923881 186.707682,119.987208 184.251791,119.941612 C183.326456,119.926414 183.001338,120.281048 183.026347,121.208162 C183.076365,122.63683 183.041352,124.070565 183.041352,125.504299 Z" id="Shape"></path>
                            <path d="M141.898126,0.0024326705 C144.559232,0.883872066 147.171644,1.90458451 149.724433,3.06029949 C151.607638,3.94579155 153.082408,5.15726146 153.527529,7.32963622 C154.24168,10.8278164 150.837236,14.1776037 147.312952,13.4113125 C146.139006,13.1680454 145.150935,12.484465 144.052806,12.063613 C142.497328,11.4676087 140.949187,10.8472778 139.359468,10.3412823 C136.965107,9.59688512 135.568601,8.03024532 135.29468,5.56838277 C135.050108,3.31572989 136.365906,1.40121821 138.774941,0.24326705 C138.921684,0.172719605 139.058644,0.082710797 139.198051,0 L141.898126,0.0024326705 Z" id="Path"></path>
                            <path d="M172.297344,178.680203 C172.268666,176.989253 172.271273,176.999304 174.012812,176.788249 C174.704474,176.734566 175.389043,176.615913 176.056772,176.433979 C177.793096,175.873679 178.504833,174.474186 178.098126,172.41389 C176.945791,173.167657 175.751743,173.710369 174.341305,173.574691 C171.197151,173.265647 169.307009,171.37118 169.127119,168.298325 C169.064549,167.129987 169.069763,165.954111 169.127119,164.780748 C169.304402,160.388801 173.319325,158.107401 177.407247,160.077245 C177.879131,160.303375 178.132019,160.358651 178.470941,159.893828 C178.854183,159.368704 179.487707,159.479256 180.035196,159.617447 C180.68697,159.780763 180.663506,160.351113 180.666113,160.851112 C180.666113,164.954114 180.697398,169.054604 180.65047,173.162632 C180.616578,176.04202 179.002788,177.815884 176.218412,178.670153 L172.297344,178.680203 Z M178.238909,166.514411 C178.238909,165.760644 178.293658,165.006878 178.238909,164.253111 C178.103341,162.705377 177.138716,161.632516 175.769992,161.403874 C173.997169,161.112417 172.500698,161.727993 171.90628,163.238039 C171.037766,165.363723 171.05177,167.730061 171.945387,169.846059 C172.537197,171.265653 174.018026,171.856103 175.75435,171.569672 C177.188251,171.343542 178.100733,170.336007 178.238909,168.763148 C178.293658,168.021944 178.238909,167.268177 178.238909,166.514411 Z" id="Shape"></path>
                            <path d="M199.997539,173.52533 C199.259141,173.484892 198.363218,174.003005 197.932486,172.794917 C197.765116,172.322298 197.393456,172.847992 197.15963,172.976889 C195.608966,173.892139 193.75605,174.099266 192.049917,173.548076 C190.605119,173.088093 189.650125,172.097361 189.431067,170.515221 C189.202163,168.862315 189.62305,167.419182 190.962011,166.367792 C192.047456,165.513538 193.332268,165.258273 194.654,165.167287 C195.146265,165.131904 195.63853,165.217835 196.130796,165.136959 C196.775663,165.030809 197.69866,165.586832 197.966945,164.457094 C198.178441,163.348718 197.662675,162.22804 196.694439,161.692141 C195.126608,160.938797 193.258693,161.433947 192.241901,162.872427 C191.656105,163.736791 190.925091,163.539655 190.302376,163.17824 C189.563978,162.751113 190.117776,162.124323 190.368832,161.661812 C191.877624,158.818511 198.205693,158.123481 200,162.420026 L199.997539,173.52533 Z M195.670528,167.007219 C194.743666,166.927739 193.812286,167.090322 192.963069,167.479839 C192.104384,167.84499 191.567804,168.731438 191.629031,169.683714 C191.648721,170.585988 192.010536,171.23047 192.812928,171.559029 C194.388177,172.203511 195.869895,171.938136 197.19655,170.896856 C197.934948,170.313031 198.360757,168.402332 197.934948,167.515222 C197.509138,166.628112 196.625522,167.158862 195.965887,167.009747 C195.867603,167.002051 195.768923,167.001206 195.670528,167.007219 L195.670528,167.007219 Z" id="Shape"></path>
                            <path d="M0,163.923784 C1.38686613,158.949904 6.38530858,158.610891 9.14082683,160.232588 C10.1719556,160.794034 10.9621218,161.696052 11.368139,162.775187 C11.563289,163.319126 11.8885391,163.959203 11.029879,164.265327 C10.2805029,164.538561 9.61959487,164.573981 9.26051884,163.61766 C8.64384478,161.975723 7.35325267,161.320466 5.58909651,161.414075 C3.97845836,161.497563 2.77113025,162.426054 2.44067622,163.923784 C2.04258505,165.700902 2.04258505,167.540517 2.44067622,169.317635 C2.78153825,170.822954 3.77550234,171.645188 5.44598649,171.847584 C6.87708662,172.02974 8.42267476,171.278345 9.05756282,170.096859 C9.27092684,169.699657 9.31776285,169.150658 9.8797949,169.04187 C10.3555999,168.939696 10.8533178,169.055318 11.230233,169.355584 C11.6283391,169.679418 11.451403,170.114569 11.323905,170.53201 C10.616161,172.808964 7.58222869,174.256095 4.68099842,173.750105 C2.05037619,173.299774 0.712948065,171.579409 0,169.236677 L0,163.923784 Z" id="Path"></path>
                            <path d="M27.0531401,132.22191 C27.0531401,127.727233 27.0531401,123.229161 27.0531401,118.727695 C27.0531401,117.044737 27.2178326,116.869057 28.7885568,116.866511 C34.7224039,116.866511 40.6578897,116.866511 46.5950142,116.866511 C48.104286,116.866511 48.2738947,117.057467 48.2886433,118.648766 C48.2886433,119.580631 48.2886433,120.514193 48.2886433,121.449452 C48.2714366,123.091673 48.0428335,123.338643 46.4057407,123.343735 C43.006192,123.343735 39.6091015,123.343735 36.2120109,123.343735 C34.297153,123.343735 34.297153,123.343735 34.297153,125.380597 C34.297153,126.144421 34.3315664,126.908244 34.297153,127.672068 C34.2479911,128.553011 34.6019571,128.873817 35.4475426,128.858541 C37.5762549,128.822895 39.7049672,128.840718 41.8385958,128.858541 C43.2962475,128.858541 43.5592639,129.141155 43.5936773,130.640795 C43.6117033,131.615095 43.6117033,132.590243 43.5936773,133.56624 C43.5666382,134.984405 43.2765827,135.297573 41.9270873,135.312849 C39.8377045,135.333218 37.7483217,135.356133 35.6638552,135.312849 C34.6806162,135.287389 34.2234101,135.592918 34.2946949,136.680093 C34.3660984,137.697182 34.3660984,138.718299 34.2946949,139.735388 C34.2062034,140.891307 34.700281,141.179014 35.7326819,141.166284 C39.2526773,141.117908 42.7751309,141.143369 46.3025006,141.151007 C48.0870793,141.151007 48.2984756,141.375062 48.308308,143.18787 C48.308308,144.206301 48.2837271,145.224733 48.308308,146.243164 C48.332889,147.261595 47.8363533,147.73262 46.9022763,147.747896 C45.4692056,147.773357 44.0361348,147.773357 42.6055221,147.773357 C38.2251926,147.773357 33.8440438,147.773357 29.4620755,147.773357 C27.2178326,147.773357 27.0703468,147.618046 27.0678887,145.357129 L27.0531401,132.22191 Z" id="Path"></path>
                            <path d="M102.960343,140.47305 C102.960343,142.370043 102.945447,144.267036 102.960343,146.15897 C102.972756,147.403397 102.290031,147.72968 101.222496,147.719562 C100.154961,147.709445 99.5144399,147.385692 99.5169154,146.128618 C99.5384388,136.905018 99.5384388,127.681417 99.5169154,118.457817 C99.5169154,117.425853 99.8942837,116.866873 100.964301,116.889636 C104.807427,116.970575 108.660483,116.697408 112.491195,117.06163 C116.321,117.420746 119.295457,120.617808 119.442585,124.533253 C119.61637,129.151798 118.352706,131.2739 114.164494,133.216421 C113.357636,133.590761 113.655553,134.000511 113.893886,134.498788 C115.668973,138.206776 117.461439,141.907177 119.204251,145.627812 C119.467411,146.19438 120.261856,146.826711 119.452515,147.509629 C118.789651,148.06355 116.835814,147.681623 116.406317,146.950648 C116.028956,146.300612 115.726074,145.602519 115.413261,144.927189 C113.816924,141.505014 112.200726,138.098015 110.646594,134.648018 C110.294059,133.871515 109.834771,133.595819 109.027913,133.621112 C107.498608,133.66917 105.964337,133.70458 104.439996,133.621112 C103.245847,133.550291 102.937999,134.068803 102.975239,135.176646 C103.037305,136.947173 102.992617,138.7177 102.992617,140.488226 L102.960343,140.47305 Z M102.975239,125.390693 L102.975239,129.809422 C102.975239,130.391166 103.034822,130.960264 103.796993,130.945088 C106.557687,130.886914 109.338243,131.230902 112.08156,130.75033 C115.001143,130.244465 116.379008,128.107187 116.140675,124.6926 C115.951994,121.981165 113.988226,120.043703 111.249875,119.972882 C108.896333,119.912178 106.532861,119.972882 104.186767,119.940001 C103.260742,119.924825 102.945447,120.324458 102.965308,121.224897 C102.992617,122.610967 102.975239,124.002095 102.975239,125.390693 L102.975239,125.390693 Z" id="Shape"></path>
                            <path d="M75.8193165,132.332834 C75.8193165,134.447368 75.7870314,136.561903 75.8193165,138.676437 C75.8764365,141.527327 77.6173523,143.815999 80.398844,144.432946 C83.108315,145.034966 85.8103355,145.007602 87.9088717,142.781121 C89.9378706,140.629272 89.3840557,137.905254 89.3269358,135.318059 C89.3120349,134.711063 88.6812323,134.780718 88.2391738,134.775743 C86.8310436,134.760817 85.4253969,134.745891 84.0172667,134.775743 C82.9940751,134.795644 82.4948967,134.385176 82.4824793,133.31547 C82.4824793,132.208449 82.9369552,131.735789 84.044585,131.748227 C86.4858407,131.780567 88.9270963,131.760666 91.368352,131.748227 C92.1133945,131.748227 92.7119119,131.929828 92.7069449,132.827884 C92.6945276,135.066802 92.8758212,137.32811 92.597672,139.54464 C91.8923652,145.122035 87.0495894,148.487877 81.2332915,147.64455 C76.365681,146.938047 73.4749164,144.430458 72.6404688,140.144173 C72.5277806,139.44943 72.4795609,138.745727 72.4964273,138.042077 C72.4840099,134.268255 72.5808654,130.494433 72.4691091,126.725586 C72.2853319,120.618313 76.8623759,116.486264 83.396398,116.894245 C87.1216102,117.1256 90.2060859,118.605774 91.8948487,122.20297 C92.417382,123.332652 92.7022663,124.557955 92.7317797,125.802654 C92.7690318,126.874847 92.21025,127.170882 91.2615626,127.123616 C90.3675117,127.081326 89.4436591,127.322631 89.3766053,125.857383 C89.2300803,122.623389 87.2457839,120.429249 84.2233951,119.929224 C80.498183,119.30979 77.4683438,120.737722 76.2464742,123.680657 C75.9215178,124.534971 75.7728263,125.446405 75.8093826,126.359896 C75.8093826,128.350046 75.8093826,130.340196 75.8093826,132.330346 L75.8193165,132.332834 Z" id="Path"></path>
                            <path d="M144.92371,132.327781 C144.92371,134.113923 144.889351,135.897575 144.92371,137.683717 C145.078326,144.506931 139.620142,148.465342 133.369244,147.673162 C127.724539,146.955715 124.669036,143.291258 124.651856,137.53674 C124.639585,133.966946 124.703395,130.397152 124.639585,126.824867 C124.526691,120.569632 129.447401,116.232569 135.951083,116.942542 C141.075494,117.503047 144.506493,120.798816 144.842721,125.355099 C145.014516,127.66687 144.872172,130.001062 144.872172,132.330272 L144.92371,132.327781 Z M141.63751,132.464793 L141.63751,132.464793 C141.63751,130.471886 141.676778,128.47898 141.63751,126.486073 C141.54425,122.375703 138.849517,119.842221 134.652801,119.864493 C130.66224,119.887061 127.989595,122.507733 127.945419,126.515967 C127.906151,130.162986 127.925785,133.812496 127.945419,137.462006 C127.945419,142.461711 130.502716,144.935406 135.430789,144.756045 C139.050763,144.624014 141.539341,142.115443 141.642419,138.426075 C141.681686,136.445624 141.63751,134.452717 141.63751,132.464793 L141.63751,132.464793 Z" id="Shape"></path>
                            <path d="M58.9213159,132.358562 C58.9213159,136.857813 58.9213159,141.362164 58.9213159,145.871614 C58.9213159,147.439639 58.6410603,147.730297 57.0302455,147.760892 C55.5922987,147.788938 54.1491134,147.760892 52.7137857,147.760892 C51.7211048,147.745594 51.2051202,147.279012 51.2077295,146.256609 C51.2182162,136.916455 51.2182162,127.576301 51.2077295,118.236147 C51.2077295,117.269836 51.6765782,116.856796 52.6561631,116.869544 C54.1805439,116.889941 55.7101632,116.915437 57.234544,116.869544 C58.4655732,116.82365 58.947508,117.295332 58.9370312,118.511507 C58.8951238,123.103395 58.9213159,127.730979 58.9213159,132.358562 Z" id="Path"></path>
                            <path d="M171.979323,128.777361 C171.979323,131.749211 171.979323,134.721062 171.979323,137.695425 C171.954761,143.591396 168.501294,147.374664 162.726685,147.743948 C159.587617,147.939894 156.718734,147.176206 154.375486,144.865046 C152.679937,143.237857 151.722503,140.962713 151.732577,138.584719 C151.67854,131.884866 151.732577,125.187526 151.690821,118.487673 C151.690821,117.281851 152.182068,116.980395 153.250531,117.015565 C154.793046,117.065807 154.982176,117.161268 154.987089,118.575598 C154.987089,125.107138 154.987089,131.638678 155.001826,138.170217 C155.001826,141.435987 156.721191,143.835072 159.727622,144.503299 C163.274426,145.284572 166.162958,144.455568 167.833198,141.654543 C168.520944,140.506499 168.697793,139.242897 168.695337,137.919004 C168.685512,131.598484 168.685512,125.277125 168.695337,118.95493 C168.695337,117.196438 169.822749,116.442799 171.419301,117.103489 C172.077572,117.377312 171.964585,117.972687 171.967042,118.49521 C171.986692,121.911707 171.979323,125.343278 171.979323,128.777361 Z" id="Path"></path>
                            <path d="M94.6320531,167.477455 C93.4958797,167.477455 92.3597062,167.492614 91.2235328,167.477455 C90.4837576,167.477455 90.1656291,167.699784 90.2666223,168.525941 C90.44841,170.041824 91.0089223,171.193895 92.5541181,171.671399 C94.1902079,172.176693 95.6217864,171.843199 96.8311799,170.61786 C97.1190105,170.327315 97.2427272,169.83718 97.7325442,169.796756 C98.1197497,169.783118 98.4892257,169.959488 98.7222775,170.269207 C99.0808033,170.686074 98.8055969,171.075151 98.5707877,171.413698 C97.2351527,173.331291 95.3364806,174.021018 93.0818076,173.816373 C90.968525,173.626888 89.410705,172.553137 88.6507312,170.572383 C87.7569414,168.227817 87.7367428,165.772086 88.3149288,163.361832 C88.9335121,160.802515 91.2311073,159.274 93.9049021,159.367479 C96.5786969,159.460959 98.5076669,161.052636 99.1186758,163.662482 C99.9341958,167.224808 99.7473584,167.477455 96.146951,167.477455 L94.6320531,167.477455 Z M93.6221212,165.63313 C94.4628895,165.63313 95.3061827,165.610392 96.146951,165.63313 C96.9877194,165.655868 97.1442588,165.241527 97.1013367,164.524009 C96.9826697,162.528096 95.4854456,161.302757 93.2736946,161.42908 C91.4053205,161.537719 90.2035015,162.99044 90.2817713,164.966141 C90.3070196,165.59018 90.6453468,165.635657 91.0998161,165.638183 L93.6221212,165.63313 Z" id="Shape"></path>
                            <path d="M151.612901,167.481488 C150.519744,167.481488 149.426588,167.501699 148.330907,167.481488 C147.470015,167.458749 147.106471,167.734134 147.262997,168.679033 C147.515458,170.1747 148.133988,171.293925 149.691672,171.710792 C151.297325,172.150397 152.680811,171.796692 153.842132,170.6042 C154.094593,170.351553 154.230922,169.909421 154.624761,169.813416 C155.076666,169.704778 155.455358,169.952371 155.730541,170.280812 C156.081461,170.695152 155.803754,171.086755 155.566441,171.425301 C154.225873,173.340362 152.322316,174.022508 150.070364,173.815338 C147.959789,173.618274 146.404629,172.552105 145.649771,170.556197 C144.758583,168.20911 144.743436,165.755911 145.324096,163.345663 C145.932527,160.831829 148.149135,159.331108 150.797452,159.363953 C153.445768,159.396797 155.409915,160.935414 156.066314,163.570518 C156.975174,167.208629 156.773205,167.476435 153.125143,167.476435 L151.612901,167.481488 Z M150.547515,165.639694 L150.547515,165.639694 C151.42608,165.639694 152.314743,165.624535 153.183209,165.639694 C153.897673,165.657379 154.129938,165.31378 154.11479,164.629108 C154.109356,162.959456 152.824346,161.573482 151.160996,161.443234 C149.015077,161.258802 147.750247,162.135486 147.396801,164.053073 C147.114045,165.584112 147.14434,165.627062 148.659106,165.634641 L150.547515,165.639694 Z" id="Shape"></path>
                            <path d="M122.821445,167.488976 C121.671323,167.488976 120.516078,167.514258 119.368517,167.488976 C118.425879,167.458638 118.169727,167.931413 118.284995,168.753082 C118.47967,170.151183 119.135419,171.228201 120.549378,171.685807 C122.188749,172.21926 123.661623,171.920931 124.883467,170.674523 C125.085284,170.402871 125.310696,170.149091 125.557146,169.916059 C125.995166,169.602561 126.374271,169.916059 126.704707,170.16888 C127.288733,170.608789 126.960859,171.086621 126.668846,171.496191 C125.370156,173.336729 123.495124,173.963726 121.320395,173.834787 C119.145665,173.705848 117.526786,172.704677 116.727592,170.7352 C115.702984,168.206988 115.749092,165.506858 116.47144,162.928082 C117.134873,160.551564 119.640038,159.155991 122.188749,159.388586 C125.131934,159.641407 126.840467,161.246822 127.383509,164.240224 C127.421465,164.4468 127.447974,164.655266 127.462916,164.864693 C127.667838,167.430827 127.611484,167.488976 124.998735,167.488976 L122.821445,167.488976 L122.821445,167.488976 Z M121.827575,165.635797 C122.718984,165.635797 123.620638,165.635797 124.504362,165.635797 C124.927013,165.635797 125.221588,165.516971 125.272818,165.006272 C125.352943,164.09192 125.042074,163.186149 124.415423,162.5081 C123.788772,161.830052 122.903425,161.441496 121.973582,161.436438 C119.729692,161.368176 118.195342,162.791559 118.279872,164.829298 C118.302926,165.431012 118.592377,165.64591 119.15335,165.640853 C120.044758,165.630741 120.936167,165.635797 121.830137,165.635797 L121.827575,165.635797 Z" id="Shape"></path>
                            <path d="M36.7124746,166.561609 C36.7124746,168.444644 36.7124746,170.327679 36.7124746,172.213283 C36.7124746,172.763037 36.7421294,173.425824 36.0304151,173.528582 C35.4546184,173.613357 34.752789,173.829148 34.4834249,172.945432 C34.2758416,172.267231 33.9891789,172.757899 33.7840668,172.919742 C32.2667314,174.044939 30.6233633,174.065491 28.9602253,173.433531 C27.035137,172.691106 26.155379,171.106069 26.1158393,169.048346 C26.0614722,166.26875 26.1010119,163.486585 26.0985407,160.70442 C26.0985407,159.933737 26.2863542,159.373708 27.1932957,159.363424 C28.1669604,159.363424 28.3547739,159.938875 28.3498314,160.773782 C28.3498314,163.296483 28.3498314,165.821754 28.3498314,168.344455 C28.3671301,170.656504 29.3210249,171.722615 31.3153077,171.738029 C33.3861987,171.756011 34.4340003,170.651366 34.4537702,168.375283 C34.4760112,165.852581 34.4685975,163.327311 34.4537702,160.80204 C34.4537702,159.987685 34.592159,159.366001 35.5806511,159.363424 C36.5691432,159.360863 36.7174171,159.987685 36.7149758,160.799471 C36.7124746,162.710764 36.7124746,164.637471 36.7124746,166.561609 Z" id="Path"></path>
                            <path d="M40.5828831,166.610919 C40.5828831,164.723592 40.5828831,162.833686 40.5828831,160.938625 C40.5828831,160.3946 40.4951906,159.731973 41.2418292,159.615949 C41.7980499,159.528286 42.4394576,159.378744 42.692513,160.19607 C42.9280298,160.954094 43.2838106,160.381708 43.5193275,160.224431 C44.6833947,159.438619 46.1087834,159.17599 47.4654879,159.497346 C49.6577992,159.958865 51.1034719,161.544529 51.1661094,163.880483 C51.2462854,166.796557 51.1836479,169.71521 51.1961754,172.633864 C51.1961754,173.407358 50.9706805,173.840515 50.1263275,173.850828 C49.2819744,173.861142 48.9261936,173.427985 48.9261936,172.600345 C48.9261936,170.02203 48.9261936,167.443714 48.9086551,164.878291 C48.8886111,162.601638 47.8738842,161.456866 45.9246062,161.443974 C43.9753283,161.431083 42.7526449,162.676409 42.7200734,164.891182 C42.6849965,167.42051 42.702535,169.952415 42.7200734,172.484321 C42.7200734,173.237189 42.647414,173.843093 41.6752805,173.84825 C40.703147,173.853407 40.5778721,173.31196 40.5853886,172.525574 C40.5929051,170.55832 40.5853886,168.58333 40.5828831,166.610919 Z" id="Path"></path>
                            <path d="M66.2977935,173.851008 C64.8831158,173.784555 63.5456024,173.541746 62.372706,172.739197 C61.5264716,172.15901 60.9271627,171.415246 60.8731477,170.336661 C60.8448542,169.764142 60.9734612,169.29897 61.6447901,169.245297 C62.2183776,169.199291 62.7199451,169.245297 63.0054528,169.907272 C63.8336822,171.844636 65.9376937,172.596067 67.8642275,171.673391 C68.5972877,171.323234 69.1168603,170.804389 69.1502981,169.91494 C69.1734474,168.984596 68.6101484,168.509201 67.8410782,168.230609 C66.434117,167.719431 64.9988622,167.282374 63.5944731,166.763529 C62.5218902,166.367366 61.6319294,165.71817 61.1612275,164.62425 C60.5233771,163.022659 61.1243466,161.196772 62.591338,160.279239 C64.5796032,158.975735 67.9928345,159.080527 69.9013633,160.486266 C70.5740516,160.958475 71.0454345,161.662904 71.2234439,162.461968 C71.3469067,163.01404 71.4034938,163.617229 70.6369957,163.783362 C70.0145375,163.918824 69.4872486,163.867707 69.1708752,163.141834 C68.365795,161.30415 65.3126634,160.637063 63.7359409,161.912452 C62.7868208,162.679218 62.8845621,163.870262 63.993155,164.570576 C64.795663,165.081754 65.7293503,165.281113 66.6244554,165.57504 C67.5252115,165.845194 68.4112238,166.1617 69.2789051,166.523275 C70.6318514,167.131577 71.4549366,168.189715 71.4960909,169.702801 C71.5372451,171.215887 70.7244485,172.281693 69.494965,173.048459 C68.5072628,173.641425 67.3883814,173.748773 66.2977935,173.851008 Z" id="Path"></path>
                            <path d="M130.442863,166.604925 C130.442863,164.714784 130.442863,162.824643 130.442863,160.931924 C130.442863,160.431668 130.340136,159.802481 130.994079,159.642606 C131.582879,159.508516 132.271899,159.335748 132.555024,160.212484 C132.767994,160.867458 133.05613,160.39041 133.289144,160.246007 C134.37722,159.498042 135.703335,159.209937 136.992317,159.441472 C139.420175,159.895312 140.908459,161.447651 141.001164,163.982451 C141.116418,166.855052 141.033736,169.735389 141.038747,172.613148 C141.038747,173.358374 140.788194,173.827686 139.953853,173.845736 C139.071906,173.861208 138.761221,173.420261 138.761221,172.58994 C138.761221,169.970045 138.781265,167.350151 138.746188,164.730256 C138.716121,162.463634 137.493423,161.303248 135.341173,161.447651 C133.627391,161.56369 132.602629,162.695711 132.585091,164.624532 C132.547508,167.203168 132.570057,169.781805 132.570057,172.360442 C132.570057,173.121139 132.595113,173.840579 131.51523,173.851008 C130.435346,173.861208 130.430335,173.175291 130.435346,172.393964 C130.447874,170.470301 130.442863,168.536323 130.442863,166.604925 Z" id="Path"></path>
                            <path d="M76.7203008,166.60776 C76.7587537,167.486491 76.6844114,168.375322 76.915129,169.241428 C77.3432385,170.862535 78.2763634,171.675613 79.9529119,171.837219 C81.5371733,171.991249 82.9445512,171.332201 83.5008372,169.913101 C83.8981843,168.903066 84.5031773,168.88034 85.295308,169.203551 C86.2950847,169.607566 85.7951963,170.327216 85.5388434,170.895361 C84.6134091,172.945733 82.024244,174.137575 79.3735541,173.791638 C76.9691569,173.47271 75.0548072,171.650502 74.6489687,169.294455 C74.3118575,167.513621 74.3118575,165.686748 74.6489687,163.905915 C75.1129676,161.408602 76.9305102,159.777395 79.6657965,159.411257 C82.024244,159.095621 84.6005914,160.370791 85.5619151,162.388337 C85.8618481,163.022134 86.45146,163.820062 85.3491422,164.297304 C84.4031997,164.708893 83.8956207,164.279628 83.529036,163.352921 C82.9419877,161.878269 81.6038251,161.269722 79.7375754,161.449004 C78.3148163,161.585359 77.3765644,162.413588 76.9663996,163.850363 C76.6818478,164.759395 76.7561902,165.698728 76.7203008,166.60776 Z" id="Path"></path>
                            <path d="M110.144928,164.177159 C110.144928,166.914924 110.144928,169.652688 110.144928,172.390453 C110.144928,173.149538 110.144928,173.827653 109.244427,173.850426 C108.343927,173.873198 108.21256,173.225446 108.21256,172.382863 C108.21256,166.949504 108.21256,161.516146 108.21256,156.082787 C108.21256,155.290809 108.257056,154.529194 109.191457,154.53423 C110.125858,154.539315 110.144928,155.293339 110.142809,156.090378 C110.14069,158.787658 110.144928,161.482409 110.144928,164.177159 Z" id="Path"></path>
                            <path d="M161.912703,161.827439 C163.259604,160.616875 164.580352,160.118122 166.167865,160.411079 C166.863546,160.539399 167.27677,160.851724 167.114619,161.580484 C166.970775,162.229347 166.756317,162.669992 165.843562,162.621569 C162.966686,162.469038 161.839473,163.488334 161.821166,166.134628 C161.805474,168.231325 161.821166,170.330444 161.821166,172.429563 C161.821166,173.226114 161.706091,173.865292 160.560571,173.850766 C159.415051,173.836239 159.44382,173.187376 159.44382,172.461038 C159.44382,168.99156 159.44382,165.522082 159.456896,162.050183 C159.456896,161.457006 159.174439,160.670139 160.178731,160.464344 C161.183022,160.258548 161.784551,160.619296 161.912703,161.827439 Z" id="Path"></path>
                            <path d="M185.507246,167.202366 C185.507246,168.985199 185.507246,170.765594 185.507246,172.548427 C185.507246,173.345946 185.316346,173.862992 184.489114,173.850797 C183.661881,173.838603 183.572794,173.311801 183.574915,172.582571 C183.574915,168.93886 183.574915,165.294336 183.574915,161.648999 C183.574915,160.849042 183.753088,160.314923 184.5782,160.329557 C185.36089,160.346629 185.505125,160.888064 185.505125,161.614855 C185.506539,163.479798 185.507246,165.342301 185.507246,167.202366 Z" id="Path"></path>
                            <path d="M16.4208641,167.197244 C16.4208641,168.986409 16.4208641,170.775573 16.4208641,172.564737 C16.4208641,173.296668 16.2919019,173.833417 15.4991011,173.850495 C14.6640176,173.870014 14.4906585,173.330824 14.4927536,172.53546 C14.4927536,168.916469 14.4927536,165.299104 14.4927536,161.683366 C14.4927536,160.90264 14.6344197,160.324414 15.4737315,160.329263 C16.3130432,160.334173 16.4272065,160.953875 16.4250924,161.712643 C16.4102934,163.537591 16.4208641,165.367418 16.4208641,167.197244 Z" id="Path"></path>
                            <path d="M57.0048309,167.141746 C57.0048309,168.970276 56.9934372,170.803689 57.0048309,172.629779 C57.0048309,173.396346 56.8248109,173.869957 55.9839577,173.850427 C55.1795643,173.830896 55.0724638,173.327989 55.0724638,172.646868 C55.0724638,168.947491 55.0724638,165.248928 55.0724638,161.551178 C55.0724638,160.78217 55.2570413,160.301235 56.0910582,160.33053 C56.884058,160.352502 57.0139459,160.855409 57.0025522,161.551178 C56.9979947,163.404122 57.0048309,165.271713 57.0048309,167.141746 Z" id="Path"></path>
                            <path d="M115.762911,154.542088 C116.696244,154.542088 117.154864,154.791168 116.774022,155.670421 C116.219744,156.935748 115.674406,158.203566 115.138008,159.473875 C114.848353,160.163827 114.320001,160.485141 113.566361,160.255987 C112.697397,160.006907 113.137243,159.381716 113.298162,158.910954 C113.673641,157.762694 114.102759,156.63187 114.497012,155.486101 C114.703525,154.843475 115.097778,154.474836 115.762911,154.542088 Z" id="Path"></path>
                            <path d="M15.8233047,157.431746 C15.074636,157.388422 14.5831787,156.907039 14.4982071,156.033329 C14.4224216,155.236641 15.148125,154.490497 15.9519104,154.536229 C16.7556957,154.58196 17.3298282,155.017611 17.3895379,155.929832 C17.4308755,156.738555 16.7419166,157.424526 15.8233047,157.431746 Z" id="Path"></path>
                            <path d="M184.85031,157.431393 C184.493517,157.420404 184.156386,157.259887 183.916384,156.986727 C183.676382,156.713568 183.554145,156.351253 183.577762,155.983036 C183.577762,155.075398 184.149825,154.599854 184.995077,154.534678 C185.38914,154.524694 185.77,154.681803 186.049169,154.969503 C186.328338,155.257203 186.481511,155.650446 186.473101,156.057868 C186.440412,156.856878 185.800635,157.448291 184.85031,157.431393 Z" id="Path"></path>
                            <path d="M56.4589865,157.431746 C55.5869041,157.325577 55.0608108,156.869532 55.0726598,155.952616 C55.0845087,155.035699 55.6698467,154.589306 56.5111219,154.536221 C56.9111707,154.514577 57.3008564,154.670199 57.5797842,154.962993 C57.8587119,155.255788 57.9996077,155.657126 57.9661726,156.063611 C57.8690112,156.958811 57.3121107,157.378662 56.4589865,157.431746 Z" id="Path"></path>
                        </g>
                    </g>
                </g>
            </g>
        </g>
    </g>
</svg>