<?xml version="1.0" encoding="UTF-8"?>
<svg width="195px" height="198px" viewBox="0 0 195 198" version="1.1" xmlns="http://www.w3.org/2000/svg" xmlns:xlink="http://www.w3.org/1999/xlink">
    <!-- Generator: Sketch 57.1 (83088) - https://sketch.com -->
    <title>Tommaso Cassinis</title>
    <desc>Created with Sketch.</desc>
    <g id="Page-1" stroke="none" stroke-width="1" fill="none" fill-rule="evenodd">
        <g id="Desktop" transform="translate(-1232.000000, -842.000000)" fill="#FCD882">
            <g id="PORTFOLIO" transform="translate(457.000000, 655.000000)">
                <g id="Works-List" transform="translate(33.000000, 160.000000)">
                    <g id="Tommaso-Cassinis" transform="translate(740.000000, 26.000000)">
                        <g id="tommasocassinis.com" transform="translate(0.000000, 177.279239)" font-family="LeagueSpartan-Bold, League Spartan" font-size="18" font-weight="bold">
                            <text id="TOMMASO-CASSINIS">
                                <tspan x="2.602" y="20">TOMMASO CASSINIS</tspan>
                            </text>
                        </g>
                        <g id="logo-TOM" transform="translate(26.146789, 0.975116)" fill-rule="nonzero">
                            <path d="M127.957468,102.459516 C127.729797,102.781766 127.589345,103.177797 127.554416,103.595992 C127.211821,106.021746 125.398084,106.862165 123.628682,105.52991 C121.573113,103.982775 120.08988,102.024982 119.694888,99.0548653 C119.553819,97.9900165 118.888782,97.2116741 118.171349,96.5718098 C117.160258,95.734464 116.437662,94.493565 116.135933,93.0764317 C115.774081,91.6395106 115.212888,90.2839603 114.475355,89.0653421 C112.778504,86.1477519 111.653986,82.9006794 110.368248,79.7682094 C108.897435,76.390976 107.24277,73.1306549 105.414731,70.0078913 C104.318427,68.0548727 103.024628,66.2737579 102.150004,64.1249599 C101.061762,61.4509001 99.2117496,59.4262549 97.5310199,57.2917822 C96.1445186,55.5249927 94.7902615,53.7438779 93.9478814,51.5616542 C93.5448287,50.4586045 92.8032117,49.8760415 91.9930758,49.3316794 C91.6485792,49.0789829 91.2130553,49.0789829 90.8685587,49.3316794 C89.3208364,50.344002 88.1681056,49.5417841 88.0471898,47.4216367 C87.9504572,45.7073734 88.3857541,44.079062 88.81299,42.5080519 C89.3460656,40.5188011 89.6351856,38.4491444 89.6714922,36.3624896 C89.7682249,32.1890464 89.7561333,28.0012778 90.4090787,23.8564852 C90.6549408,22.2950253 90.4735671,20.6332882 90.4695366,19.0193021 C90.4695366,18.6229683 90.6065745,18.0642808 90.1873997,17.9162525 C89.7682249,17.7682242 89.4619048,18.2743855 89.3006837,18.6945949 C88.7367646,20.1063314 88.1056432,21.478996 87.4103666,22.8059617 C86.2898801,25.0359366 85.0968441,27.2563612 84.3431355,29.7346415 C84.0327849,30.742189 83.819167,31.4632302 85.1895462,31.5205314 C86.4390096,31.5778327 87.1806265,33.1345175 86.8581844,34.6434512 C86.6845252,35.4641957 86.445658,36.2636147 86.1447811,37.0310045 C85.6016773,38.5234604 85.4337344,40.1699187 85.6611179,41.7726855 C85.7296383,42.3956922 85.6856759,43.0288365 85.532141,43.630202 C85.2482313,44.7472875 84.4522742,45.5754215 83.4806027,45.7646747 C82.5455205,45.9222532 82.1303762,44.9051555 81.8119646,44.0313109 C81.5739835,43.2772362 81.1354359,42.6353248 80.5625012,42.2024451 C79.4621673,41.3429259 79.86522,39.9533698 80.2924559,38.7834687 C80.6267041,37.9990485 80.872002,37.1657435 81.0219813,36.3051883 C79.8370063,36.9689282 79.4782894,38.2773074 78.8132525,39.2275536 C76.3949363,42.7086064 74.2950317,46.5525673 71.3164723,49.4701575 C70.9339097,49.8339186 70.6380104,50.3095642 70.45797,50.8501633 C70.3249626,51.2512723 70.1194057,51.7431082 69.792933,51.7717589 C68.1807222,51.9150121 67.4229832,53.6197252 66.1654587,54.3789671 C65.4762386,54.7896263 64.7426827,55.2432614 64.4444237,56.2269334 C64.2738044,56.6644841 63.952046,56.9934635 63.5617383,57.1294286 C60.7927662,58.4521331 58.5598543,60.7680599 56.125416,62.7163034 C55.528898,63.1938141 55.4926232,63.5614973 56.3067897,63.9721565 C58.4510301,65.070431 60.8169494,64.7982499 62.9894035,65.6195683 C64.33963,66.1352798 65.6616429,66.011127 67.0199305,65.7341708 C68.3056686,65.47154 69.6034983,65.9395004 70.9456638,65.6338936 C72.0218145,65.3903631 72.9609273,67.395908 72.844042,69.2056734 C72.7795536,70.2275462 71.5905481,71.2064431 70.4902142,71.292395 C67.7212422,71.5024997 64.9159954,71.8606327 62.1913591,71.4213229 C59.9060503,71.0536397 57.5562531,71.4786242 55.3112495,70.4090003 C53.8602598,69.7166098 52.2319269,69.5685815 50.6761435,69.1913481 C50.4665561,69.143597 50.0917171,69.0958459 50.0393202,69.1913481 C49.1606653,71.0488646 47.2864703,70.1463694 46.1498616,71.1873427 C43.9612855,73.1928875 41.7162819,75.0886048 39.5115837,77.0798243 C37.4560149,78.946891 35.452843,80.8999097 33.296511,82.6523738 C31.3255833,84.2377092 29.2901672,85.7227674 27.6094374,87.7808384 C27.0854689,88.4254778 26.2471193,88.6069318 25.5941739,89.1226434 C23.0226977,91.1043126 20.3544888,92.9188532 17.7306158,94.8002452 C17.1018535,95.2777559 16.5577324,95.8507687 15.9330007,96.3235042 C15.1717342,96.9366077 14.7054024,97.945638 14.6795068,99.0357648 C14.4255836,102.196885 13.9257983,105.30548 11.9145653,107.798086 C10.3668429,109.708128 9.0206469,111.833051 7.01344445,113.14143 C6.20733905,113.676242 5.9896906,114.626488 5.92520216,115.667461 C5.87683584,116.441029 5.95341585,117.233696 5.67127896,117.988163 C5.26822626,118.995711 4.86517356,119.860005 3.74468706,119.740627 C2.62420055,119.62125 1.86243095,118.924084 1.72942355,117.658681 C1.33846244,114.750641 1.0200508,111.780525 1.2578519,108.805633 C1.39488981,107.034069 1.06841713,105.252954 1.41101192,103.490939 C1.47953088,103.142357 1.24979084,102.927477 1.08856976,102.679171 C0.0245106327,101.026984 0.318739104,99.6278781 1.89467516,98.730158 C2.54131131,98.4025029 3.16760191,98.0211368 3.76887022,97.5889075 C4.68783037,96.8630913 5.59469895,96.1133996 5.48587472,94.5089637 C5.42944734,93.6876454 5.88892742,93.1050823 6.44514015,92.5750455 C8.30540892,90.796345 10.3746929,89.3485772 12.5876633,88.2774495 C14.5061942,87.3749543 15.9491228,85.6177151 17.7064326,84.4287135 C19.9191919,82.9341051 22.244806,81.678252 24.3769548,79.9878643 C28.3671765,76.841069 32.4057646,73.7802256 36.134002,70.1988956 C37.1134201,69.2438742 38.1774792,68.384355 38.6087456,66.8563209 C38.7739972,66.2737579 39.2576605,66.0684283 39.7292321,65.8487734 C43.5622633,64.086759 47.1857071,61.8806597 50.152175,58.4187074 C51.2920912,57.1109444 52.5809336,55.9986916 53.9811756,55.1143336 C58.0358858,52.5071253 61.425559,48.820743 65.0852775,45.5641202 C66.4239537,44.3582746 67.9823828,43.5405927 69.6357425,43.1765669 C70.2415765,43.077065 70.7789425,42.6643008 71.1028543,42.0496417 C74.8834886,35.4170185 78.5472377,28.7079936 81.6668656,21.5883095 C83.3219114,17.7102931 85.2287116,13.990439 87.3700613,10.462311 C88.3857541,8.82444936 88.9822721,6.64222561 90.8081008,5.65855363 C91.6142062,5.22401892 91.6142062,3.86311352 92.0172589,2.94151793 C92.4848001,1.87666914 92.9926465,1.0601259 94.121194,1.26068038 C94.4368511,1.30937738 94.7487188,1.14311114 94.9272994,0.830920775 C95.418622,0.101872946 96.2825919,-0.100015699 96.9707766,0.353410107 C97.7709544,0.72747337 98.2913437,1.65035572 98.2766674,2.66933685 C98.4016137,5.27176999 97.8736147,7.78825121 97.470562,10.2713067 C96.7732808,14.268071 96.3218618,18.2887108 95.8905954,22.3332262 C95.3988711,26.9555294 95.31423,31.5873829 95.1288258,36.2192364 C95.0280626,38.6927417 95.2174974,41.1853474 95.2618332,43.6684028 C95.2618332,44.1077127 95.2618332,44.5852233 95.6648859,44.7284765 C97.3415851,45.3158146 98.3129421,47.1160299 99.8122982,48.0328504 C100.561976,48.510361 100.993243,49.4319566 101.247166,50.4204037 C101.823531,52.6217279 103.089117,54.0447097 104.596534,55.4820168 C106.353843,57.1580792 107.800803,59.3450781 109.199396,61.4843259 C110.166722,62.964609 111.617712,63.819353 112.391573,65.5909176 C114.459233,70.2705222 117.308816,74.4296401 119.142706,79.2715983 C120.351864,82.4422691 121.859281,85.4076104 123.132927,88.525755 C123.495675,89.4139249 123.939033,90.3546209 123.99546,91.3048671 C124.253414,95.0199001 126.353318,97.8419882 127.272279,101.222764 C127.40488,101.619472 127.65791,101.943091 127.981651,102.130034 L127.957468,102.459516 Z" id="Path"></path>
                            <path d="M84.4580024,116.772607 C84.1018191,117.352757 83.8456873,117.836215 83.5375287,118.271328 C83.093247,118.967667 82.3648195,119.306973 81.6485564,119.151222 C79.2473204,118.280997 76.878101,119.388117 74.4848691,119.252748 C69.730422,118.982011 64.9839789,119.354274 60.2295317,119.818394 C56.4195707,120.190657 52.6616365,121.094725 48.8756878,121.331619 C43.3768575,121.674875 37.9140457,122.588611 32.387201,122.632122 C29.185553,122.656295 25.9318783,122.970543 22.706218,123.289625 C18.6201149,123.690896 14.5220055,123.99064 10.4399044,124.488602 C8.74703307,124.696489 7.77453251,123.144588 6.4378445,122.520927 C5.92958289,122.284032 5.84553963,121.273604 6.10967559,120.500071 C6.47386304,119.436462 6.93409993,118.493719 8.01865816,118.348681 C9.58746565,118.135959 11.1522711,117.739524 12.7210786,117.729854 C18.0358141,117.729854 23.3425456,117.246396 28.6092564,116.6179 C33.7078807,115.994239 38.8425236,116.356833 43.9131335,115.428593 C44.7348252,115.315161 45.5258619,114.985078 46.2303262,114.461676 C47.3949256,113.552774 48.8476734,113.586616 50.1923655,113.576947 C54.4705675,113.576947 58.6327098,112.445655 62.850881,111.865504 C66.1885989,111.406219 69.5063066,110.768054 72.8280163,110.212077 C77.2302822,109.47722 81.6085358,109.54007 85.9947934,109.216153 C86.899259,109.148469 87.7757101,109.337017 88.7081901,108.950251 C89.4205567,108.650506 90.1969563,109.298341 90.7572447,110.052536 C92.6309189,112.596814 93.8784877,115.723194 94.3590986,119.078703 C94.6611468,120.842378 95.2620489,122.511463 96.1240071,123.980971 C97.7633946,126.831711 99.1175183,129.906976 100.158083,133.142507 C100.534277,134.322145 101.518784,135.07634 101.358701,136.666918 C101.146592,138.915 99.7578775,140.002781 98.0730102,138.885992 C97.0364767,138.194647 96.3441204,137.1117 95.6717743,135.985242 C95.1925867,135.033359 94.5396311,134.226383 93.7627917,133.625965 C93.0979608,133.092475 92.5972186,132.309153 92.3380584,131.397222 C91.5868234,129.202549 90.509924,127.192185 89.1604228,125.465188 C87.1954116,122.911543 85.6051578,119.971906 84.4580024,116.772607 Z" id="Path"></path>
                        </g>
                    </g>
                </g>
            </g>
        </g>
    </g>
</svg>