<?xml version="1.0" encoding="UTF-8"?>
<svg width="200px" height="231px" viewBox="0 0 200 231" version="1.1" xmlns="http://www.w3.org/2000/svg" xmlns:xlink="http://www.w3.org/1999/xlink">
    <!-- Generator: Sketch 57.1 (83088) - https://sketch.com -->
    <title>Berlin Shorts</title>
    <desc>Created with Sketch.</desc>
    <g id="Page-1" stroke="none" stroke-width="1" fill="none" fill-rule="evenodd">
        <g id="Desktop" transform="translate(-490.000000, -815.000000)" fill-rule="nonzero">
            <g id="PORTFOLIO" transform="translate(457.000000, 655.000000)">
                <g id="Works-List" transform="translate(33.000000, 160.000000)">
                    <g id="Berlin-Shorts">
                        <g id="berlinshorts-logo" transform="translate(40.860215, 0.000000)">
                            <path d="M55.2795098,13.1601957 C55.2795098,13.1601957 55.628529,4.59823583 55.2795098,2.46593024 C54.9304906,0.333624659 65.2195759,12.2697344 65.2195759,12.2697344 L60.1890462,15.4758316 L55.2795098,13.1601957 Z" id="Path" fill="#FBD982"></path>
                            <path d="M67.2586228,97.1605608 C67.4379319,97.3742541 67.4806026,97.6696228 67.3689872,97.9245086 C67.2573719,98.1793944 67.0104439,98.3504695 66.7303275,98.3669809 C62.4734407,98.6110543 50.0596734,96.2981681 49.7520881,61.11208 C49.3787594,19.8288057 61.6539959,62.1348639 62.3583898,64.6034921 C62.3789122,64.6792203 62.387622,64.7576091 62.3842175,64.835943 L61.8136585,77.6207408 C61.8136585,77.6207408 61.6258202,90.2288759 67.2586228,97.1605608 Z" id="Path" fill="#FBD982"></path>
                            <path d="M75.1683248,88.4333233 C74.6335661,86.5090044 74.2762033,83.9852409 74.2993419,80.6954075 C73.8545666,83.5666457 73.9805434,85.812023 75.1683248,88.4333233 Z" id="Path" fill="#FBD982"></path>
                            <path d="M79.589991,93.960406 C77.4911734,91.7861561 76.0732925,90.0343104 75.1683248,88.4333233 C76.7424379,93.0024537 79.589991,93.960406 79.589991,93.960406 Z" id="Path" fill="#FBD982"></path>
                            <path d="M69.9719053,0.00182616534 C70.0722888,-0.0101349414 70.1705455,0.0373520175 70.2246895,0.123995581 C71.7609764,2.57227278 78.5515856,13.8128049 80.0989249,23.0134799 C81.1422737,25.8410045 81.9402587,28.4373901 82.0264676,29.9700879 L82.0264676,29.9700879 L81.2815343,29.0724611 C81.2815343,29.0724611 82.9062406,39.3749731 82.9062406,42.2585993 L82.9062406,42.2585993 L82.0927822,40.8897184 C82.0927822,40.8897184 82.5879308,54.2127447 80.4128138,61.1491561 L80.4128138,61.1491561 L79.5949344,58.0590757 C79.5949344,58.0590757 79.4203061,65.0987142 75.9365821,68.6353639 C75.8317825,68.7455287 75.7020062,68.8279674 75.5585893,68.8754791 C74.8269188,72.919288 74.2013516,75.928582 73.8940942,78.4845744 C73.9331953,75.1817921 74.1694133,71.8844503 74.6014494,68.6106792 C70.5827881,65.6081174 63.4893425,40.7483422 63.4893425,40.7483422 L63.4893425,40.7483422 L63.9690177,38.1901057 C62.5630016,37.734336 61.1071975,37.4554829 59.6342571,37.3598009 C53.6814216,36.9940179 45.7457813,39.5567425 40.3323042,38.8251767 C34.918827,38.0936108 30.8294302,31.7294365 32.3944534,31.5005417 C33.9594766,31.2716468 43.6480313,28.4575867 44.6604333,17.9486205 C46.7581834,10.2582026 58.6019607,8.70306408 59.578995,8.78609456 C59.6149087,8.78965463 59.6511527,8.78505529 59.6850982,8.77263016 C60.3791904,8.52353871 67.8992596,5.61971589 69.7538563,0.180097258 C69.7867666,0.0830808183 69.8715217,0.013787272 69.9719053,0.00182616534 Z M51.9545774,23.2275937 C51.9545774,23.2275937 50.0981889,23.144568 49.1095375,23.3851296 C48.1208862,23.6256911 47.5329113,24.8029524 47.5329113,24.8029524 C47.5329113,24.8029524 47.9501838,25.4054207 49.3086903,25.4245804 C50.8639788,25.3564568 51.9545774,23.2275937 51.9545774,23.2275937 Z" id="Combined-Shape" fill="#FBD982"></path>
                            <path d="M21.0175059,59.7796963 C21.5876357,69.9991014 34.1933214,91.2087128 34.1933214,91.2087128 L35.177668,92.777762 C37.2464246,86.9544394 44.0204971,79.0291398 64.0634676,72.9816673 C64.2997469,72.9092023 64.5565951,72.9440645 64.7640501,73.0767579 C64.9715052,73.2094512 65.1079586,73.4261544 65.1362424,73.6678404 C65.6016545,78.1508382 68.245195,96.4579372 79.7152753,98.370073 C80.0158725,98.4210292 80.3208914,98.3073661 80.5115634,98.0733421 C80.7022353,97.8393181 80.7484212,97.5219247 80.6321371,97.2447491 C80.0736426,95.9295839 79.0823149,93.3793071 77.4836245,88.6287018 C74.6911521,80.3191452 77.7698529,73.4414032 77.7698529,59.608153 C77.7698529,45.8846904 69.0992262,37.7009322 59.5559518,37.5841624 C59.4211751,37.5820143 59.2878413,37.6118346 59.1673327,37.671198 C57.982859,38.252158 46.4220234,41.1455213 36.7344713,44.1212255 C36.5087465,44.2035662 20.4520303,49.6243339 21.0175059,59.7796963 Z" id="Path" fill="#FBD982"></path>
                            <path d="M37.8151772,92.8549894 L37.3712988,91.7495729 C37.3712988,91.7774619 37.3580979,91.8028154 37.3531476,91.8307044 C37.5016571,92.1805839 37.655667,92.5220123 37.8151772,92.8549894 Z" id="Path" fill="#EF4136"></path>
                            <path d="M100.738737,113.737652 C100.738737,113.737652 118.055644,99.1918121 118.27957,88.0561533 C118.27957,88.0561533 103.767386,98.8329659 97.4839006,98.3986935 C97.4839006,98.3986935 99.612324,96.5267509 99.612324,93.6536961 C99.612324,93.6536961 86.5952392,102.885413 75.5731274,102.885413 C75.5731274,102.885413 77.5975046,102.57228 79.5970012,99.6466553 C75.5560728,100.386634 71.4788795,100.907743 67.3828817,101.20775 C65.2477709,101.3965 63.1043831,101.472791 60.9614215,101.436315 C56.5558495,101.304103 52.1899648,100.552526 47.9895742,99.2032403 C46.633719,98.8958254 45.3240496,98.4085685 44.0946273,97.7541418 C41.8645641,96.5325643 39.9398384,94.8127508 38.4670848,92.7257245 C38.2408974,92.4263051 44.3004578,101.182608 37.8314982,91.8114668 C31.3625386,82.4403255 37.8495932,91.7634683 37.8586407,91.7383262 L36.901868,90.1703743 C36.901868,90.1703743 22.6203957,71.2178123 24.0928757,58.7450517 C25.5653556,46.2722911 39.1320758,43.156958 39.3695725,43.1112451 C38.1617318,43.3398095 36.1509259,44.0917865 36.1509259,44.0917865 C36.1509259,44.0917865 35.0697501,44.5237732 34.7236834,44.6449124 C34.4590441,44.7317669 34.1627386,44.8323352 33.8392907,44.9443318 C29.130069,46.5854243 18.5083088,50.7910097 10.4062763,60.0387263 C3.49172753,67.9424841 -1.5816558,79.5192721 0.454030777,96.3096147 C6.50001991,134.420447 54.9991217,155.798077 94.6656056,130.555422 C94.6656056,130.555422 88.2825972,131.069692 87.6085588,130.843413 C86.9345203,130.617135 105.46153,120.786579 108.833984,110.782314 C108.833984,110.782314 102.086814,113.963931 100.738737,113.737652 Z" id="Path" fill="#FBD982"></path>
                        </g>
                        <g id="Berlin-Shorts-logo" transform="translate(0.000000, 167.741935)" fill="#FCD882">
                            <path d="M8.52007957,62.3655914 L8.52007957,19.4639165 C7.15686684,21.2778468 3.40803183,22.8347624 0,23.3537343 L0,10.8143853 C4.94164615,9.34149372 9.45972263,6.57364373 10.2240955,0 L22.5806452,0 L22.5806452,62.3655914 L8.52007957,62.3655914 Z" id="Path"></path>
                            <path d="M26.6646529,7.52688172 C26.0061813,7.52587514 25.3554737,7.38239555 24.7558444,7.10599365 L24.9284757,5.60282195 C25.4748629,5.85615012 26.0645375,5.99910039 26.6646529,6.02371003 C27.0444417,6.02371003 27.2269376,5.95356202 27.2269376,5.72307569 C27.2269376,5.49258936 26.773164,5.45751536 26.2404732,5.36231448 C25.5450159,5.22702903 24.7311828,4.9614687 24.7311828,3.82907936 C24.7311828,2.58144685 25.7176471,2.15053763 27.1085618,2.15053763 C27.7221437,2.15308266 28.3296858,2.27379845 28.8989946,2.50628827 L28.736228,4.00945996 C28.2386171,3.75439292 27.6905258,3.61733773 27.1332234,3.60861418 C26.7386377,3.60861418 26.5117509,3.65370933 26.5117509,3.89922737 C26.5117509,4.14474541 26.8619458,4.1297137 27.2959901,4.20487228 C28.030906,4.34015773 29.0321673,4.5806652 29.0321673,5.85836114 C29.0420319,7.0057822 28.2479281,7.52688172 26.6646529,7.52688172 Z" id="Path"></path>
                            <path d="M31.1290323,7.52504792 C30.2134725,7.52504792 29.5777989,7.14576123 29.5777989,5.68930034 L29.5777989,3.56023772 L29.0322581,3.56023772 L29.0322581,2.16951986 L29.5777989,2.16951986 L29.5777989,0.333772287 L31.2476281,0 L31.2476281,2.16951986 L32.0540797,2.16951986 L32.0540797,3.56023772 L31.2476281,3.56023772 L31.2476281,5.58310007 C31.2476281,5.9573296 31.3804554,6.08881565 31.5891841,6.08881565 C31.7800091,6.07465982 31.9658944,6.01779573 32.1347249,5.92192951 L32.2580645,7.32781884 C31.8975547,7.47209634 31.5138824,7.53911954 31.1290323,7.52504792 Z" id="Path"></path>
                            <path d="M37.5851371,50.5376344 L29.0322581,50.5376344 L29.0322581,26.8817204 L38.0511112,26.8817204 C42.4302654,26.8817204 44.995628,28.9504886 44.995628,32.8781498 C44.995628,36.5559599 43.6478106,37.5703558 41.2778564,38.3249065 C43.4473916,39.0494751 45.161133,40.5235973 45.161133,44.1014669 C45.1860261,48.5738038 42.2548988,50.5376344 37.5851371,50.5376344 Z M36.7934822,31.478983 L34.4586013,31.478983 L34.4586013,36.0362693 L36.6982832,36.0362693 C38.7375461,36.0362693 39.4289915,35.3166978 39.4289915,33.7076559 C39.4139601,32.0036705 38.6724099,31.478983 36.7934822,31.478983 Z M36.6982832,40.6335319 L34.4586013,40.6335319 L34.4586013,45.9453689 L36.6982832,45.9453689 C38.9680279,45.9453689 39.5893267,44.945964 39.5893267,43.2869519 C39.5893267,41.6279397 38.7676089,40.6335319 36.6982832,40.6335319 L36.6982832,40.6335319 Z" id="Shape"></path>
                            <path d="M52.8191818,43.988096 C53.1108639,45.5062408 53.990854,46.0477125 55.3849957,46.0477125 C57.3357775,45.9949829 59.2607786,45.5782561 61.0653813,44.8180152 L61.5597578,49.3724496 C59.5743897,50.1679073 57.4575485,50.5631239 55.3256705,50.5363607 C50.7526882,50.5363607 47.311828,48.3097483 47.311828,42.5964632 C47.311828,36.8831782 50.5153875,34.4086022 54.9005067,34.4086022 C59.9283154,34.4086022 62.3655914,37.4448918 62.3655914,42.0853545 L62.3655914,44.0133984 L52.8191818,43.988096 Z M54.9005067,38.3709601 C53.6991719,38.3709601 52.9230009,38.8365246 52.7252503,41.2604958 L56.996663,41.2604958 C56.996663,39.2363027 56.5022865,38.3709601 54.9005067,38.3709601 L54.9005067,38.3709601 Z" id="Shape"></path>
                            <path d="M72.7367888,39.8571302 C72.1983856,39.6093696 71.6149436,39.4810362 71.0247329,39.4805478 C70.0942678,39.4805478 69.4057235,40.2003446 69.4057235,41.3586931 L69.4057235,49.4623656 L64.516129,49.4623656 L64.516129,34.5659087 L69.4243328,34.5659087 L69.4243328,36.5679925 C69.6057735,35.8195945 70.2198806,34.4086022 71.7784097,34.4086022 C72.2385786,34.4127129 72.6936022,34.5082245 73.1182796,34.6898473 L72.7367888,39.8571302 Z" id="Path"></path>
                            <polygon id="Path" points="74.1935484 50.5376344 74.1935484 26.8817204 79.5698925 26.8817204 79.5698925 50.5376344"></polygon>
                            <path d="M85.483871,31.2811627 C83.889999,31.2811627 82.7956989,30.3976645 82.7956989,28.5413254 C82.7956989,26.6849864 83.889999,25.8064516 85.483871,25.8064516 C87.0777429,25.8064516 88.172043,26.6502421 88.172043,28.5413254 C88.172043,30.4324088 87.0444381,31.2811627 85.483871,31.2811627 Z M83.0098011,49.4623656 L83.0098011,33.9515114 L88.0055191,33.9515114 L88.0055191,49.4623656 L83.0098011,49.4623656 Z" id="Shape"></path>
                            <path d="M98.94044,49.4291134 L98.94044,40.4035057 C98.94044,39.0021614 98.4707462,38.5033778 97.4088299,38.5033778 C96.3469136,38.5033778 95.698532,39.0306633 95.698532,40.436758 L95.698532,49.4623656 L90.3225806,49.4623656 L90.3225806,34.584364 L95.6883213,34.584364 L95.6883213,35.8336981 C96.2601224,35.2066559 97.3322494,34.4086022 99.343764,34.4086022 C102.458038,34.4086022 104.301075,36.1234676 104.301075,39.6814571 L104.301075,49.4101121 L98.94044,49.4291134 Z" id="Path"></path>
                            <path d="M121.745935,50.5349692 C119.043301,50.5846549 116.371951,49.9389372 113.978495,48.6574269 L114.51951,43.5816565 C116.132897,44.4539005 118.866958,45.9421361 121.620342,45.9421361 C123.431779,45.9421361 124.518641,45.6513881 124.518641,43.8083414 C124.518641,42.4137365 123.25305,41.8371684 121.620342,41.3148075 L120.258142,40.8959333 C117.403318,40.0187613 114.166884,38.727643 114.166884,33.9376926 C114.166884,29.5025534 117.403318,26.8858212 122.349747,26.8858212 C124.76132,26.8245525 127.141824,27.4508821 129.223546,28.6943724 L128.58592,33.5483859 C127.383126,32.8042681 125.064487,31.4786543 122.431866,31.4786543 C120.499667,31.4786543 119.736448,32.4642408 119.736448,33.7455032 C119.736448,35.0267657 121.069665,35.58855 122.784492,36.1059829 L123.958303,36.460794 C126.856602,37.3330381 130.107527,38.6931474 130.107527,43.5816565 C130.088205,48.6574269 126.412196,50.5349692 121.745935,50.5349692 Z" id="Path"></path>
                            <path d="M140.875924,50.5027069 L140.875924,41.0223786 C140.875924,39.5504329 140.40623,39.02652 139.344314,39.02652 C138.282397,39.02652 137.634016,39.5803707 137.634016,41.0573061 L137.634016,50.5376344 L132.258065,50.5376344 L132.258065,26.8817204 L137.623805,26.8817204 L137.623805,36.2223386 C138.190501,35.5637053 139.262628,34.7254447 141.274142,34.7254447 C144.393522,34.7254447 146.236559,36.5267071 146.236559,40.2639523 L146.236559,50.4827483 L140.875924,50.5027069 Z" id="Path"></path>
                            <path d="M156.4541,50.5376344 C152.107268,50.5376344 148.387097,48.4559812 148.387097,42.4731183 C148.387097,36.4902554 152.107268,34.4086022 156.4541,34.4086022 C160.800931,34.4086022 164.516129,36.4952957 164.516129,42.4731183 C164.516129,48.4509409 160.795958,50.5376344 156.4541,50.5376344 Z M156.4541,38.7584005 C154.623855,38.7584005 153.470005,39.6202957 153.470005,42.4983199 C153.470005,45.3763441 154.643749,46.2382392 156.4541,46.2382392 C158.26445,46.2382392 159.438194,45.3763441 159.438194,42.4983199 C159.438194,39.6202957 158.279371,38.7584005 156.4541,38.7584005 Z" id="Shape"></path>
                            <path d="M174.922861,39.8571302 C174.383262,39.6100256 173.798628,39.4817071 173.207106,39.4805478 C172.27209,39.4805478 171.580178,40.2003446 171.580178,41.3586931 L171.580178,49.4623656 L166.666667,49.4623656 L166.666667,34.5659087 L171.580178,34.5659087 L171.580178,36.5679925 C171.762506,35.8195945 172.374942,34.4086022 173.917719,34.4086022 C174.381639,34.4128189 174.840399,34.5083145 175.268817,34.6898473 L174.922861,39.8571302 Z" id="Path"></path>
                            <path d="M182.639894,49.4614121 C179.883093,49.4614121 177.975273,48.3815908 177.975273,44.2172576 L177.975273,38.1450788 L176.344086,38.1450788 L176.344086,34.1695933 L177.975273,34.1695933 L177.975273,28.9254388 L182.983301,27.9569892 L182.983301,34.1550665 L185.430081,34.1550665 L185.430081,38.130552 L182.983301,38.130552 L182.983301,43.8976693 C182.983301,44.9774905 183.393483,45.2970789 184.018294,45.2970789 C184.588736,45.2496161 185.143711,45.0848692 185.64948,44.8128541 L186.021505,48.8173931 C184.948135,49.2597375 183.798198,49.47874 182.639894,49.4614121 L182.639894,49.4614121 Z" id="Path"></path>
                            <path d="M192.870704,50.5376344 C190.892368,50.5301869 188.937441,50.1017472 187.131527,49.2798427 L187.652819,44.7992753 C189.293882,45.5643298 191.066841,45.9934251 192.870704,46.0621184 C194.007617,46.0621184 194.563661,45.8600635 194.563661,45.1680255 C194.563661,44.3699086 193.193408,44.3699086 191.629532,44.0718777 C189.544364,43.6728192 187.096774,42.8797538 187.096774,39.4599746 C187.096774,35.7118562 190.030903,34.4086022 194.235992,34.4086022 C196.078953,34.4203708 197.903761,34.7800578 199.617711,35.4693904 L199.121243,39.9145981 C197.620853,39.1541892 195.971619,38.7467663 194.295568,38.7224742 C193.123903,38.7224742 192.438776,38.8538099 192.438776,39.5862589 C192.438776,40.2126291 193.48136,40.2782969 194.787072,40.5106601 C197.001322,40.9097185 200,41.6421675 200,45.486262 C200.004957,48.9818117 197.626872,50.5376344 192.870704,50.5376344 Z" id="Path"></path>
                            <polygon id="Path" points="29.0322581 61.2903226 29.0322581 54.8387097 30.1075269 54.8387097 30.1075269 61.2903226"></polygon>
                            <polygon id="Path" points="36.6372735 61.2903226 34.2411727 56.5813867 34.2411727 61.2903226 33.3333333 61.2903226 33.3333333 54.8387097 34.2808597 54.8387097 36.7265692 59.6078977 36.7265692 54.8387097 37.6344086 54.8387097 37.6344086 61.2903226"></polygon>
                            <polygon id="Path" points="42.393631 55.6405265 42.393631 61.2903226 41.4773367 61.2903226 41.4773367 55.6405265 39.7849462 55.6405265 39.7849462 54.8387097 44.0860215 54.8387097 44.0860215 55.6405265"></polygon>
                            <polygon id="Path" points="47.311828 61.2810663 47.311828 54.8387097 50.5376344 54.8387097 50.5376344 55.6393761 48.0957889 55.6393761 48.0957889 57.490628 50.2891659 57.490628 50.2891659 58.2959226 48.0957889 58.2959226 48.0957889 60.4896561 50.5376344 60.4896561 50.5376344 61.2903226"></polygon>
                            <path d="M57.0059366,61.2718366 L55.4705195,58.4989371 L54.6408221,58.4989371 L54.6408221,61.2718366 L53.7634409,61.2718366 L53.7634409,54.8387097 L55.8376845,54.8387097 C57.1919033,54.8387097 57.9214648,55.4718551 57.9214648,56.6873094 C57.9589592,57.5759191 57.2910028,58.3455619 56.3812794,58.4619651 L58.0645161,61.2903226 L57.0059366,61.2718366 Z M55.818611,55.638229 L54.6408221,55.638229 L54.6408221,57.7086607 L55.7709272,57.7086607 C56.4623417,57.7086607 57.0202418,57.4036417 57.0202418,56.6734449 C57.0202418,55.943248 56.490952,55.638229 55.818611,55.638229 L55.818611,55.638229 Z" id="Shape"></path>
                            <polygon id="Path" points="64.5942628 61.2903226 62.198162 56.5813867 62.198162 61.2903226 61.2903226 61.2903226 61.2903226 54.8387097 62.237849 54.8387097 64.6835584 59.6078977 64.6835584 54.8387097 65.5913978 54.8387097 65.5913978 61.2903226"></polygon>
                            <path d="M72.1159975,61.2903226 L71.6020066,59.6264368 L69.2479286,59.6264368 L68.7339378,61.2903226 L67.7419355,61.2903226 L69.9161167,54.8387097 L70.9440984,54.8387097 L73.1182796,61.2903226 L72.1159975,61.2903226 Z M70.4198277,55.9927697 L69.5254837,58.8199852 L71.3038919,58.8199852 L70.4198277,55.9927697 Z" id="Shape"></path>
                            <polygon id="Path" points="77.8724949 55.6405265 77.8724949 61.2903226 76.9562006 61.2903226 76.9562006 55.6405265 75.2688172 55.6405265 75.2688172 54.8387097 79.5698925 54.8387097 79.5698925 55.6405265"></polygon>
                            <polygon id="Path" points="81.7204301 61.2903226 81.7204301 54.8387097 82.7956989 54.8387097 82.7956989 61.2903226"></polygon>
                            <path d="M88.7119809,61.2903226 C86.8691894,61.2903226 86.0215054,59.8734438 86.0215054,58.0805649 C86.0215054,56.1868079 87.0396477,54.8387097 88.7211949,54.8387097 C90.4027421,54.8387097 91.3978495,56.1868079 91.3978495,58.0805649 C91.3978495,59.8367609 90.5870212,61.2903226 88.7119809,61.2903226 Z M88.7119809,55.6136369 C87.5786642,55.6136369 86.9060453,56.46193 86.9060453,58.0576381 C86.9060453,59.538712 87.5464153,60.4924685 88.702767,60.4924685 C89.8591186,60.4924685 90.4994886,59.5753949 90.4994886,58.0576381 C90.5087026,56.4711007 89.7946209,55.6136369 88.7211949,55.6136369 L88.7119809,55.6136369 Z" id="Shape"></path>
                            <polygon id="Path" points="97.9287449 61.2903226 95.5354046 56.5813867 95.5354046 61.2903226 94.6236559 61.2903226 94.6236559 54.8387097 95.5700907 54.8387097 98.0129825 59.6078977 98.0129825 54.8387097 98.9247312 54.8387097 98.9247312 61.2903226"></polygon>
                            <path d="M105.433209,61.2903226 L104.916253,59.6264368 L102.58995,59.6264368 L102.072994,61.2903226 L101.075269,61.2903226 L103.230976,54.8387097 L104.264888,54.8387097 L106.451613,61.2903226 L105.433209,61.2903226 Z M103.747932,55.9927697 L102.848428,58.8199852 L104.657775,58.8199852 L103.747932,55.9927697 Z" id="Shape"></path>
                            <polygon id="Path" points="109.677419 61.2810663 109.677419 54.8387097 110.558498 54.8387097 110.558498 60.4896561 112.903226 60.4896561 112.903226 61.2903226"></polygon>
                            <polygon id="Path" points="121.214068 55.6428372 121.214068 57.5020917 123.326051 57.5020917 123.326051 58.3108673 121.214068 58.3108673 121.214068 61.2903226 120.430108 61.2903226 120.430108 54.8387097 123.655914 54.8387097 123.655914 55.6428372"></polygon>
                            <polygon id="Path" points="125.806452 61.2903226 125.806452 54.8387097 126.88172 54.8387097 126.88172 61.2903226"></polygon>
                            <polygon id="Path" points="130.107527 61.2810663 130.107527 54.8387097 130.9921 54.8387097 130.9921 60.4896561 133.333333 60.4896561 133.333333 61.2903226"></polygon>
                            <polygon id="Path" points="142.974811 61.2903226 142.340582 56.7250649 140.731422 61.2903226 139.929464 61.2903226 138.356995 56.7250649 137.570761 61.2903226 136.55914 61.2903226 137.722766 54.8387097 138.661006 54.8387097 140.35403 59.8767149 142.06802 54.8387097 143.037709 54.8387097 144.086022 61.2903226"></polygon>
                            <polygon id="Path" points="151.321595 55.6428372 151.321595 57.5020917 153.433578 57.5020917 153.433578 58.3108673 151.321595 58.3108673 151.321595 61.2903226 150.537634 61.2903226 150.537634 54.8387097 153.763441 54.8387097 153.763441 55.6428372"></polygon>
                            <polygon id="Path" points="156.989247 61.2810663 156.989247 54.8387097 160.215054 54.8387097 160.215054 55.6393761 157.773208 55.6393761 157.773208 57.490628 159.966585 57.490628 159.966585 58.2959226 157.773208 58.2959226 157.773208 60.4896561 160.215054 60.4896561 160.215054 61.2903226"></polygon>
                            <path d="M165.509343,61.2881078 C164.787493,61.3112179 164.072424,61.1531093 163.44086,60.8307464 L163.604947,59.8840083 C164.157533,60.2326328 164.801174,60.4394489 165.469565,60.4831517 C166.27508,60.4831517 166.737505,60.1767196 166.737505,59.53184 C166.737505,58.8869605 166.304914,58.7177367 165.743042,58.5302186 L165.07178,58.3106851 C164.291126,58.0545627 163.495556,57.6658055 163.495556,56.5910062 C163.495556,55.3789985 164.445268,54.8393121 165.683375,54.8393121 C166.31582,54.8276106 166.938132,54.9866142 167.473408,55.2966735 L167.279488,56.179381 C166.824249,55.8616816 166.274211,55.6797372 165.703264,55.657989 C164.972333,55.657989 164.504936,55.9644211 164.504936,56.5406965 C164.504936,57.1169718 164.927583,57.3273581 165.464593,57.5011554 L166.1458,57.7252625 C166.921481,57.9813849 167.741935,58.3792893 167.741935,59.4906775 C167.746885,60.7209797 166.921481,61.2881078 165.509343,61.2881078 Z" id="Path"></path>
                            <polygon id="Path" points="172.513128 55.6405265 172.513128 61.2903226 171.582896 61.2903226 171.582896 55.6405265 169.892473 55.6405265 169.892473 54.8387097 174.193548 54.8387097 174.193548 55.6405265"></polygon>
                            <polygon id="Path" points="177.419355 61.2903226 177.419355 54.8387097 178.494624 54.8387097 178.494624 61.2903226"></polygon>
                            <polygon id="Path" points="183.93371 61.2903226 182.80868 61.2903226 180.645161 54.8387097 181.726921 54.8387097 183.34956 60.0482017 184.939746 54.8387097 186.021505 54.8387097"></polygon>
                            <path d="M191.434857,61.2903226 L190.920866,59.6264368 L188.602767,59.6264368 L188.088776,61.2903226 L187.096774,61.2903226 L189.270955,54.8387097 L190.298937,54.8387097 L192.473118,61.2903226 L191.434857,61.2903226 Z M189.738687,55.9927697 L188.844343,58.8199852 L190.638171,58.8199852 L189.738687,55.9927697 Z" id="Shape"></path>
                            <polygon id="Path" points="195.698925 61.2810663 195.698925 54.8387097 196.570764 54.8387097 196.570764 60.4896561 198.924731 60.4896561 198.924731 61.2903226"></polygon>
                        </g>
                    </g>
                </g>
            </g>
        </g>
    </g>
</svg>