<svg xmlns="http://www.w3.org/2000/svg" width="145.872" height="60.161" viewBox="0 0 145.872 60.161">
  <g id="Group_58" data-name="Group 58" transform="translate(-37.405 -65.536)">
    <path id="Path_176" data-name="Path 176" d="M6.075-4.125H9.57A4.387,4.387,0,0,1,9.142-2.97a3.744,3.744,0,0,1-.743.96,3.184,3.184,0,0,1-1.072.653,3.986,3.986,0,0,1-1.4.232,3.915,3.915,0,0,1-2.01-.525A3.886,3.886,0,0,1,2.483-3.105,4.24,4.24,0,0,1,1.95-5.25,4.229,4.229,0,0,1,2.483-7.4,3.9,3.9,0,0,1,3.915-8.85a3.915,3.915,0,0,1,2.01-.525A4.365,4.365,0,0,1,8.01-8.9,3.456,3.456,0,0,1,9.39-7.59l.9-.825a4.425,4.425,0,0,0-1.1-1.23,4.751,4.751,0,0,0-1.47-.75,6,6,0,0,0-1.793-.255,5.549,5.549,0,0,0-2.115.4,5.026,5.026,0,0,0-1.7,1.125A5.128,5.128,0,0,0,1-7.41,5.744,5.744,0,0,0,.6-5.25,5.744,5.744,0,0,0,1-3.09,5.128,5.128,0,0,0,2.115-1.372,5.026,5.026,0,0,0,3.81-.248a5.549,5.549,0,0,0,2.115.4A4.95,4.95,0,0,0,8.063-.293,4.621,4.621,0,0,0,9.645-1.5a5.3,5.3,0,0,0,.975-1.747,6.481,6.481,0,0,0,.33-2.077H6.075ZM16.5-5.175,20.1,0h1.575l-3.75-5.175ZM14.625-10.5V0H15.9V-10.5Zm.7,1.125h2.145a2.806,2.806,0,0,1,1.192.24,1.889,1.889,0,0,1,.81.69,1.966,1.966,0,0,1,.292,1.1,1.966,1.966,0,0,1-.292,1.1,1.889,1.889,0,0,1-.81.69,2.806,2.806,0,0,1-1.192.24H15.33V-4.2h2.145A4.185,4.185,0,0,0,19.3-4.582a3.093,3.093,0,0,0,1.275-1.1,2.956,2.956,0,0,0,.472-1.673,2.946,2.946,0,0,0-.472-1.68A3.113,3.113,0,0,0,19.3-10.118a4.185,4.185,0,0,0-1.823-.382H15.33ZM25.575-5.25a4.276,4.276,0,0,1,.517-2.115,3.887,3.887,0,0,1,1.417-1.47,3.887,3.887,0,0,1,2.04-.54,3.877,3.877,0,0,1,2.048.54,3.9,3.9,0,0,1,1.41,1.47,4.275,4.275,0,0,1,.518,2.115,4.275,4.275,0,0,1-.518,2.115,3.9,3.9,0,0,1-1.41,1.47,3.877,3.877,0,0,1-2.048.54,3.887,3.887,0,0,1-2.04-.54,3.887,3.887,0,0,1-1.417-1.47A4.276,4.276,0,0,1,25.575-5.25Zm-1.35,0a5.663,5.663,0,0,0,.4,2.13A5.128,5.128,0,0,0,25.74-1.4a5.218,5.218,0,0,0,1.695,1.14A5.372,5.372,0,0,0,29.55.15a5.356,5.356,0,0,0,2.123-.412A5.239,5.239,0,0,0,33.36-1.4,5.128,5.128,0,0,0,34.478-3.12a5.663,5.663,0,0,0,.4-2.13,5.646,5.646,0,0,0-.4-2.138A5.146,5.146,0,0,0,33.36-9.1a5.239,5.239,0,0,0-1.688-1.14,5.356,5.356,0,0,0-2.123-.412,5.372,5.372,0,0,0-2.115.412A5.218,5.218,0,0,0,25.74-9.1a5.146,5.146,0,0,0-1.118,1.71A5.646,5.646,0,0,0,24.225-5.25Zm14.16-5.25v7.05a4.07,4.07,0,0,0,.248,1.44,3.21,3.21,0,0,0,.72,1.14,3.345,3.345,0,0,0,1.132.75,3.849,3.849,0,0,0,1.47.27,3.849,3.849,0,0,0,1.47-.27,3.345,3.345,0,0,0,1.132-.75,3.21,3.21,0,0,0,.72-1.14,4.07,4.07,0,0,0,.248-1.44V-10.5H44.25v7.05a2.526,2.526,0,0,1-.585,1.74,2.165,2.165,0,0,1-1.71.66,2.165,2.165,0,0,1-1.71-.66,2.526,2.526,0,0,1-.585-1.74V-10.5Zm11.265,0V0h1.275V-10.5Zm.7,1.2H52.5a2.654,2.654,0,0,1,1.658.488A1.725,1.725,0,0,1,54.8-7.35a1.73,1.73,0,0,1-.638,1.455A2.626,2.626,0,0,1,52.5-5.4H50.355v1.2H52.5a4.185,4.185,0,0,0,1.823-.383,3.093,3.093,0,0,0,1.275-1.1A2.956,2.956,0,0,0,56.07-7.35,2.946,2.946,0,0,0,55.6-9.03a3.113,3.113,0,0,0-1.275-1.088A4.185,4.185,0,0,0,52.5-10.5H50.355Z" transform="translate(85.532 123.751)" fill="#0e101d"/>
    <path id="Path_44" data-name="Path 44" d="M1.03,16.614l1.087-.576V5.355L1.03,4.777Z" transform="translate(36.375 60.759)" fill="#c88c00"/>
    <path id="Path_45" data-name="Path 45" d="M18.4,40.093V6.029L16.768,4.778V41.344Z" transform="translate(36.104 60.759)" fill="#c88c00"/>
    <path id="Path_46" data-name="Path 46" d="M35.362,6.671V63.047l-2.18,1.89V4.777Z" transform="translate(35.079 60.76)" fill="#c88c00"/>
    <path id="Path_175" data-name="Path 175" d="M32.66-13.432,32.108-6.21a14.289,14.289,0,0,1-3.013,3.519A13.9,13.9,0,0,1,24.817-.253a16.4,16.4,0,0,1-5.635.9,17.585,17.585,0,0,1-8.51-2.116A14.751,14.751,0,0,1,4.853-7.291,17.88,17.88,0,0,1,2.76-16.146a17.842,17.842,0,0,1,2.07-8.763,14.71,14.71,0,0,1,5.819-5.842,17.782,17.782,0,0,1,8.809-2.093,19.659,19.659,0,0,1,6.141.9,19.845,19.845,0,0,1,4.761,2.231l.92,6.486h-.414a9.98,9.98,0,0,0-4.14-6.141,12.761,12.761,0,0,0-7.268-2.093,12.68,12.68,0,0,0-7.015,1.909,12.644,12.644,0,0,0-4.6,5.336A18.477,18.477,0,0,0,6.21-16.192a18.63,18.63,0,0,0,1.633,8.05A12.894,12.894,0,0,0,12.4-2.76,12.577,12.577,0,0,0,19.182-.736a14.91,14.91,0,0,0,6.049-1.219,10.889,10.889,0,0,0,4.669-4,16.355,16.355,0,0,0,2.392-7.475ZM69.046-32.844l.368,3.082L57.868-4.048l-.345.782q-.345.782-.713,1.863A11.368,11.368,0,0,0,56.3.644h-.46l-.644-2.9ZM40.756-3.358V0H35.65V-.46h.736a3.476,3.476,0,0,0,2.208-.759,3.12,3.12,0,0,0,1.15-2.139Zm1.334.736v.23a2.049,2.049,0,0,0,.529,1.357,1.61,1.61,0,0,0,1.265.621h.69V0H41.768V-2.622Zm1.1-30.222h.46l.92,2.714L41.86,0H39.376Zm.46,0L56.9-4.186,55.844.644,42.78-27.692Zm25.806,0L73.416,0H69.828L67.3-27.876l1.748-4.968ZM72.036-3.358H73a3.29,3.29,0,0,0,1.2,2.139A3.412,3.412,0,0,0,76.36-.46H77.1V0h-5.06ZM69.6-2.622h.322V0H67.114V-.414h.69a1.59,1.59,0,0,0,1.288-.621A2.1,2.1,0,0,0,69.6-2.392v-.23ZM84.824-32.2H89.7a13.706,13.706,0,0,1,5.451.966,7.514,7.514,0,0,1,3.381,2.691,7.086,7.086,0,0,1,1.15,4.025,7.372,7.372,0,0,1-.736,3.381,6.855,6.855,0,0,1-1.886,2.346,7.139,7.139,0,0,1-2.438,1.265,9.749,9.749,0,0,1,4.209,1.61,8.367,8.367,0,0,1,2.714,3.1,9.086,9.086,0,0,1,.943,4.163,8.267,8.267,0,0,1-1.242,4.531,8.113,8.113,0,0,1-3.657,3.036A14.182,14.182,0,0,1,91.77,0H86.664l.023-.414q.023-.414.023-.828v-.414h4.876a8.779,8.779,0,0,0,4.048-.851,5.792,5.792,0,0,0,2.53-2.507,8.371,8.371,0,0,0,.874-3.956,7.905,7.905,0,0,0-.989-4.186A6.591,6.591,0,0,0,95.5-15.594a10.986,10.986,0,0,0-3.381-1.127,21.407,21.407,0,0,0-3.473-.3v-.414a13.445,13.445,0,0,0,2.346-.23,7.629,7.629,0,0,0,2.484-.92,5.412,5.412,0,0,0,1.978-2.047,7.1,7.1,0,0,0,.782-3.565,7.647,7.647,0,0,0-.759-3.542,5.037,5.037,0,0,0-2.254-2.231,8.127,8.127,0,0,0-3.7-.759H85.284a2.712,2.712,0,0,0-.115-.391q-.115-.345-.23-.713Zm2.254,0V0h-2.99V-32.2ZM84.226-3.358V0h-3.68l.046-.46h.552a2.867,2.867,0,0,0,2.07-.851,2.755,2.755,0,0,0,.874-2.047Zm0-25.484h-.138a2.755,2.755,0,0,0-.874-2.047,2.867,2.867,0,0,0-2.07-.851h-.552l-.046-.46h3.68Z" transform="translate(80.789 102.508)" fill="#0e101d"/>
  </g>
</svg>
