<?xml version="1.0" encoding="utf-8"?>
<!-- Generator: Adobe Illustrator 23.0.4, SVG Export Plug-In . SVG Version: 6.00 Build 0)  -->
<svg version="1.1" id="Group_26" xmlns="http://www.w3.org/2000/svg" xmlns:xlink="http://www.w3.org/1999/xlink" x="0px" y="0px"
	 viewBox="0 0 101.2 43.7" style="enable-background:new 0 0 101.2 43.7;" xml:space="preserve">
<style type="text/css">
	.st0{clip-path:url(#SVGID_2_);}
	.st1{enable-background:new    ;}
	.st2{fill:#F6D98E;}
	.st3{clip-path:url(#SVGID_4_);}
</style>
<g id="Group_23">
	<g>
		<defs>
			<rect id="SVGID_1_" y="0" width="101.2" height="43.7"/>
		</defs>
		<clipPath id="SVGID_2_">
			<use xlink:href="#SVGID_1_"  style="overflow:visible;"/>
		</clipPath>
		<g id="Group_22" class="st0">
			<g>
				<g class="st1">
					<path class="st2" d="M35.8,35.9h2.9c0,0.4-0.1,0.9-0.2,1.2c-0.1,0.4-0.3,0.7-0.6,1c-0.3,0.3-0.6,0.5-0.9,0.7s-0.8,0.3-1.3,0.3
						c-0.5,0-0.9-0.1-1.3-0.2c-0.4-0.2-0.7-0.4-1-0.7s-0.5-0.6-0.7-1c-0.2-0.4-0.2-0.8-0.2-1.3c0-0.5,0.1-0.9,0.2-1.3
						c0.2-0.4,0.4-0.7,0.7-1s0.6-0.5,1-0.7c0.4-0.2,0.8-0.2,1.3-0.2c0.4,0,0.7,0.1,1.1,0.2c0.3,0.1,0.6,0.3,0.9,0.5
						c0.3,0.2,0.5,0.4,0.7,0.7l-0.5,0.5c-0.2-0.3-0.5-0.6-0.8-0.8c-0.4-0.2-0.8-0.3-1.3-0.3c-0.4,0-0.8,0.1-1.2,0.3
						c-0.4,0.2-0.6,0.5-0.9,0.9c-0.2,0.4-0.3,0.8-0.3,1.3c0,0.5,0.1,0.9,0.3,1.3c0.2,0.4,0.5,0.7,0.9,0.9c0.4,0.2,0.8,0.3,1.2,0.3
						c0.3,0,0.6,0,0.8-0.1s0.5-0.2,0.6-0.4s0.3-0.4,0.4-0.6c0.1-0.2,0.2-0.4,0.3-0.7h-2.1V35.9z"/>
				</g>
			</g>
			<g>
				<g class="st1">
					<path class="st2" d="M41.7,32.8v6.3h-0.8v-6.3H41.7z M41.3,32.8h1.3c0.4,0,0.8,0.1,1.1,0.2c0.3,0.2,0.6,0.4,0.8,0.7
						s0.3,0.6,0.3,1c0,0.4-0.1,0.7-0.3,1s-0.4,0.5-0.8,0.7c-0.3,0.2-0.7,0.2-1.1,0.2h-1.3v-0.7h1.3c0.3,0,0.5,0,0.7-0.1
						s0.4-0.2,0.5-0.4c0.1-0.2,0.2-0.4,0.2-0.7S44,34.2,43.8,34c-0.1-0.2-0.3-0.3-0.5-0.4c-0.2-0.1-0.4-0.1-0.7-0.1h-1.3V32.8z
						 M42.9,36l2.2,3.1h-0.9L42.1,36H42.9z"/>
				</g>
			</g>
			<g>
				<g class="st1">
					<path class="st2" d="M46.9,34.7c0.2-0.4,0.4-0.7,0.7-1c0.3-0.3,0.6-0.5,1-0.7c0.4-0.2,0.8-0.2,1.3-0.2c0.5,0,0.9,0.1,1.3,0.2
						c0.4,0.2,0.7,0.4,1,0.7c0.3,0.3,0.5,0.6,0.7,1c0.2,0.4,0.2,0.8,0.2,1.3c0,0.5-0.1,0.9-0.2,1.3c-0.2,0.4-0.4,0.7-0.7,1
						c-0.3,0.3-0.6,0.5-1,0.7c-0.4,0.2-0.8,0.2-1.3,0.2c-0.5,0-0.9-0.1-1.3-0.2c-0.4-0.2-0.7-0.4-1-0.7s-0.5-0.6-0.7-1
						c-0.2-0.4-0.2-0.8-0.2-1.3C46.7,35.5,46.8,35.1,46.9,34.7z M47.8,37.2c0.2,0.4,0.5,0.7,0.9,0.9s0.8,0.3,1.2,0.3
						c0.5,0,0.9-0.1,1.2-0.3c0.4-0.2,0.6-0.5,0.8-0.9s0.3-0.8,0.3-1.3c0-0.5-0.1-0.9-0.3-1.3s-0.5-0.7-0.8-0.9
						c-0.4-0.2-0.8-0.3-1.2-0.3c-0.5,0-0.9,0.1-1.2,0.3s-0.6,0.5-0.9,0.9s-0.3,0.8-0.3,1.3C47.5,36.4,47.6,36.8,47.8,37.2z"/>
					<path class="st2" d="M55.9,32.8V37c0,0.4,0.1,0.8,0.4,1c0.2,0.3,0.6,0.4,1,0.4c0.4,0,0.8-0.1,1-0.4c0.2-0.3,0.4-0.6,0.4-1v-4.2
						h0.8V37c0,0.3,0,0.6-0.1,0.9s-0.2,0.5-0.4,0.7c-0.2,0.2-0.4,0.3-0.7,0.5c-0.3,0.1-0.6,0.2-0.9,0.2s-0.6-0.1-0.9-0.2
						c-0.3-0.1-0.5-0.3-0.7-0.5c-0.2-0.2-0.3-0.4-0.4-0.7c-0.1-0.3-0.1-0.6-0.1-0.9v-4.2H55.9z"/>
				</g>
			</g>
			<g>
				<g class="st1">
					<path class="st2" d="M62.7,32.8v6.3h-0.8v-6.3H62.7z M62.4,32.8h1.3c0.4,0,0.8,0.1,1.1,0.2c0.3,0.2,0.6,0.4,0.8,0.7
						c0.2,0.3,0.3,0.6,0.3,1c0,0.4-0.1,0.7-0.3,1c-0.2,0.3-0.4,0.5-0.8,0.7c-0.3,0.2-0.7,0.2-1.1,0.2h-1.3v-0.7h1.3
						c0.4,0,0.7-0.1,1-0.3s0.4-0.5,0.4-0.9c0-0.4-0.1-0.7-0.4-0.9c-0.3-0.2-0.6-0.3-1-0.3h-1.3V32.8z"/>
				</g>
			</g>
		</g>
	</g>
</g>
<path id="Path_39" class="st2" d="M0.7,15.6L1.3,15V3.9L0.7,3.3V15.6z"/>
<path id="Path_40" class="st2" d="M12.3,28.8V4.2l-0.8-0.9v26.4L12.3,28.8z"/>
<path id="Path_41" class="st2" d="M23.8,4.5v35.9l-1.1,1.2V3.3L23.8,4.5z"/>
<g id="Group_25">
	<g>
		<defs>
			<rect id="SVGID_3_" y="0" width="101.2" height="43.7"/>
		</defs>
		<clipPath id="SVGID_4_">
			<use xlink:href="#SVGID_3_"  style="overflow:visible;"/>
		</clipPath>
		<g id="Group_24" class="st3">
			<g>
				<g class="st1">
					<path class="st2" d="M49.6,15.6l-0.3,4.6c-0.5,0.8-1.1,1.6-1.9,2.2s-1.7,1.2-2.7,1.5c-1,0.4-2.2,0.6-3.6,0.6
						c-2,0-3.8-0.5-5.4-1.3S33,21,32.1,19.5c-0.9-1.6-1.3-3.4-1.3-5.6c0-2.1,0.4-3.9,1.3-5.5c0.9-1.6,2.1-2.8,3.7-3.7
						c1.6-0.9,3.4-1.3,5.6-1.3c1.4,0,2.7,0.2,3.9,0.6c1.1,0.4,2.2,0.8,3,1.4l0.6,4.1h-0.3c-0.4-1.7-1.3-3-2.6-3.9
						c-1.3-0.9-2.8-1.3-4.6-1.3c-1.7,0-3.2,0.4-4.4,1.2c-1.2,0.8-2.2,1.9-2.9,3.4c-0.7,1.4-1,3.1-1,5.1c0,1.9,0.3,3.6,1,5.1
						c0.7,1.5,1.6,2.6,2.9,3.4c1.2,0.8,2.7,1.2,4.3,1.3c1.4,0,2.6-0.3,3.8-0.8c1.2-0.5,2.2-1.4,2.9-2.5c0.8-1.2,1.3-2.7,1.5-4.7
						H49.6z"/>
					<path class="st2" d="M54.7,21.9v2.1h-3.2v-0.3c0,0,0.2,0,0.5,0c0.5,0,1-0.2,1.4-0.5c0.4-0.3,0.6-0.8,0.7-1.3H54.7z M56.3,3.4
						h0.3l0.6,1.7l-1.7,19h-1.6L56.3,3.4z M55.6,22.4C55.6,22.4,55.6,22.4,55.6,22.4c0,0.1,0,0.1,0,0.1c0,0.3,0.1,0.6,0.3,0.9
						c0.2,0.3,0.5,0.4,0.8,0.4h0.4v0.3h-1.8v-1.7H55.6z M56.6,3.4l8.4,18.1l-0.7,3L56,6.6L56.6,3.4z M72.6,3.4l0.2,1.9l-7.3,16.2
						c-0.3,0.7-0.5,1.2-0.7,1.7c-0.2,0.5-0.3,0.9-0.3,1.3h-0.3l-0.4-1.8L72.6,3.4z M72.9,22.4h0.2v1.7h-1.8v-0.3h0.4
						c0.3,0,0.6-0.1,0.8-0.4s0.3-0.5,0.3-0.9C72.9,22.5,72.9,22.5,72.9,22.4C72.9,22.4,72.9,22.4,72.9,22.4z M72.8,3.4l2.5,20.7
						h-2.3L71.5,6.5l1.1-3.1H72.8z M74.4,21.9h0.6c0.1,0.6,0.3,1,0.8,1.3c0.4,0.3,0.9,0.5,1.4,0.5h0.5v0.3h-3.2V21.9z"/>
					<path class="st2" d="M82.1,5.9L82.1,5.9c-0.1-0.5-0.3-0.9-0.6-1.3c-0.4-0.4-0.8-0.5-1.3-0.5c0,0-0.1,0-0.2,0s-0.1,0-0.2,0
						l0-0.3h2.3V5.9z M82.1,21.9v2.1h-2.3l0-0.3c0,0,0.1,0,0.2,0s0.1,0,0.2,0c0.5,0,0.9-0.2,1.3-0.5S82,22.4,82.1,21.9L82.1,21.9z
						 M83.9,3.8v20.3H82V3.8H83.9z M85.6,3.8c1.4,0,2.5,0.2,3.4,0.6c0.9,0.4,1.6,1,2.1,1.7c0.5,0.7,0.7,1.6,0.7,2.5
						c0,0.8-0.2,1.5-0.5,2.1c-0.3,0.6-0.7,1.1-1.2,1.5s-1,0.6-1.5,0.8c1,0.2,1.9,0.5,2.7,1c0.7,0.5,1.3,1.2,1.7,2
						c0.4,0.8,0.6,1.7,0.6,2.6c0,1.1-0.3,2-0.8,2.9c-0.5,0.8-1.3,1.5-2.3,1.9c-1,0.5-2.2,0.7-3.7,0.7h-3.2c0-0.3,0-0.7,0-1h3.1
						c1,0,1.9-0.2,2.6-0.5c0.7-0.4,1.2-0.9,1.6-1.6s0.6-1.5,0.6-2.5c0-1.1-0.2-2-0.6-2.6c-0.4-0.7-1-1.2-1.6-1.5
						c-0.7-0.3-1.4-0.6-2.1-0.7c-0.8-0.1-1.5-0.2-2.2-0.2v-0.3c0.4,0,0.9,0,1.5-0.1c0.5-0.1,1.1-0.3,1.6-0.6s0.9-0.7,1.2-1.3
						c0.3-0.6,0.5-1.3,0.5-2.2c0-0.9-0.2-1.6-0.5-2.2c-0.3-0.6-0.8-1.1-1.4-1.4c-0.6-0.3-1.4-0.5-2.3-0.5h-2.7c0,0,0-0.1-0.1-0.2
						c0-0.1-0.1-0.4-0.2-0.7H85.6z"/>
				</g>
			</g>
		</g>
	</g>
</g>
</svg>
