<svg xmlns="http://www.w3.org/2000/svg" xmlns:xlink="http://www.w3.org/1999/xlink" viewBox="0 0 162.44 162.39"><defs><style>.cls-1{mask:url(#mask);}.cls-2{fill:#f6d98d;}.cls-3{filter:url(#luminosity-invert-noclip);}</style><filter id="luminosity-invert-noclip" x="0" y="-8273.22" width="162.44" height="32766" filterUnits="userSpaceOnUse" color-interpolation-filters="sRGB"><feColorMatrix values="-1 0 0 0 1 0 -1 0 0 1 0 0 -1 0 1 0 0 0 1 0" result="invert"/><feFlood flood-color="#fff" result="bg"/><feBlend in="invert" in2="bg"/></filter><mask id="mask" x="0" y="-8273.22" width="162.44" height="32766" maskUnits="userSpaceOnUse"><g class="cls-3"/></mask></defs><title>headshot-weddings</title><g id="Layer_2" data-name="Layer 2"><g id="Layer_1-2" data-name="Layer 1"><g class="cls-1"><path class="cls-2" d="M81.27,162.39C36.57,162.65,0,125.84,0,81.14A81.47,81.47,0,0,1,81.07,0c44.76-.09,81.35,36.55,81.37,81.19S125.9,162.61,81.27,162.39Zm77-81.1a77,77,0,1,0-76.65,77C123.76,158.23,158.3,123.55,158.25,81.29Z"/><path class="cls-2" d="M81.13,157.17a76,76,0,1,1,76.06-76A75.95,75.95,0,0,1,81.13,157.17Zm-27-134L54,23l-.09.12.18.07.09.14s0-.06,0-.08S54.13,23.16,54.1,23.14Zm-9.83,4.09c-.16,0-.27.05-.24.24a1.18,1.18,0,0,0-1.2.72l-.12.09h.07a.38.38,0,0,0,0-.1,12.19,12.19,0,0,1,3.07,4.43c.31-.31,1-.42,1.25-1.07l.08-.08-.07.1a.64.64,0,0,1-.7-.29q-1.2-1.91-2.42-3.8l.23-.24.09,0s0,0,0-.06Zm69.86,3.56c-.07-.11-.13-.21-.25-.06s.11.1.16.15l.27.21c1.26,1,1.38,1,2-.45l.11-.22-.19.14a1.75,1.75,0,0,1-1.83.43Zm8.37,1.71.12-.11h-.07s0,.07,0,.1l-.28.2c-.42.13-.78-.14-1.17-.18h0L121,32a9,9,0,0,1,.7-.81c.88-.78.56-1.32-.48-1.86.32.65,0,1-.34,1.31-.67.79-1.27,1.65-2,2.37s-.7,1.12.12,1.5c.73-.61.86-1.81,2.08-1.88.39.42.17,1,.16,1.54a3.48,3.48,0,0,0,1.14-1.36ZM91.27,19.3l0-.24c.34,0,.46.17.48.51.06.71.16,1.42.26,2.12,0,.26-.05.61.32.68s.46-.25.58-.5.18-.43.27-.65a.72.72,0,0,0,.31-.66l.09-.25-.17.17-.49.37a12.32,12.32,0,0,1-.22-4.11l-2-.28c1,.83.76,1.72.53,2.6-.16,0-.22.1-.21.25a.69.69,0,0,0-.27.72c-.26.06-.61.41-.68-.18a6.49,6.49,0,0,1-.21-2.7c.35-1.06-.18-.94-.78-1-.27,0-.52-.24-.81-.07.7,1.17.54,2.51.81,3.76.15.69-.09,1.85.59,1.93s.87-1.05,1.08-1.77A.87.87,0,0,0,91.27,19.3ZM37.51,32.23c-.88.41-.88.86,0,1.42.06-.47.12-.88.17-1.3l.1-.23Zm84.22,2.86-1.41.43c.74.73.74.73,1.48-.36.1,0,.26-.08.08-.22C121.87,34.93,121.78,35,121.73,35.09ZM52,22.71a4.21,4.21,0,0,1,1.84,0c-.38-.88-.39-.9-.92-.63-.34.17-.66.4-1,.6l-.17.18Zm1.86,116.58c1-1.59,1-1.59-.48-2.13-.67-.34-1.35-.66-2-1s-.78,0-.89.5l-.35.42c.31.17.39-.09.51-.27.49-.08,1.45-.38,1.25.29a12.06,12.06,0,0,1-2.17,4.34c.76.71,1.23.6,1.6-.46A26.58,26.58,0,0,1,52.68,138c.15-.31.22-.71.7-.68.79.49.4,1.28.49,1.95-.12,0-.24,0-.11.17Zm69.7-106.48c1.08-.92,1.06-1-.52-1.86a1.71,1.71,0,0,1,.39,1.76c-.14.08-.28.24-.13.34S123.48,32.92,123.55,32.81ZM52.9,25.06a1.73,1.73,0,0,1,1.4.49,6.07,6.07,0,0,0-1-2.06,2,2,0,0,1-.35,1.58h-.49a7.32,7.32,0,0,1-.79-1.45c-.2-.66-.47-.82-1-.41-.22.15-.57.14-.45.4a15.15,15.15,0,0,1,2.49,4.55l-.29.11a.58.58,0,0,0,.1.11c.08-.05.15-.12.23-.18.93,0,1-.47.65-1.21a4.48,4.48,0,0,1-.73-1.71Zm41.8-6.68a5.89,5.89,0,0,1,1.24-1.12l-2.28-.36c.41.47,1.19.51.92,1.37-.17.22-.46.41-.27.78A.73.73,0,0,0,94.7,18.38Zm-23.58.37c-.19,1.17-.17,2.41-1.1,3.4a4.91,4.91,0,0,0,2.25-.31c-.39-.3-1.18,0-1.13-.78,0-.38-.11-.85.42-1,.34-.1.73,0,1-.28a1.43,1.43,0,0,1,.59,1.11c0,1.05.6.82,1.18.76a.88.88,0,0,0,.72-.3c-.56-.06-.76-.46-.95-.88-.47-1-1-2.09-1.46-3.12-.18-.38-.26-1.05-.68-1s-.41.75-.58,1.16-.18.59-.27.89Zm16.82,56.5c-1.75-.47-2.16-2-2.64-3.48a12.1,12.1,0,0,0,0,3.8c.68-.32.68-.32,2.61.1a2.85,2.85,0,0,0,1.45-.06c1.74-.44,2.58-1.32,2.74-2.86.14-1.36-.49-2.28-2.13-3.09-.72-.35-1.47-.63-2.15-1-1.59-.92-1.63-2.37-.14-3.51,2.34-.35,3.33,1.07,4,3V64.9c-1.4.47-2.69-.55-4-.18a2.48,2.48,0,0,0-2.36,2.16A2.76,2.76,0,0,0,86.73,70c.83.46,1.71.84,2.57,1.24a2.13,2.13,0,0,1,1.49,2,2,2,0,0,1-1.4,2ZM88,148c1.38-.7,1.35-2,1.14-3.19s-.74-2.11-2.12-2.2a2.28,2.28,0,0,0-2.63,2.2,3.13,3.13,0,0,0,2.09,3.55,1,1,0,0,0,1-.16C87.67,148.2,87.86,148.2,88,148Zm19.88-5.8c.47.07.83-.23,1.24-.36.75.16,1.63.54,1.39-.87a3.15,3.15,0,0,0-.37-4c-.87-.95-1.77-1-3.46-.24l-1.19.7a25.94,25.94,0,0,1,2.39,4.77l-.32.09s.08.11.12.11S107.87,142.33,107.86,142.18Zm-14-1-.32.06-1.44.42c.36,1.84,1.19,3.51,1,5.45l2-.48c-1.17-.38-.93-1.36-1.13-2.11-.14-.53.46-.42.71-.62a1.3,1.3,0,0,1,1,1.17,1.73,1.73,0,0,0,.48,1.06.63.63,0,0,0,.86.07c.42-.29-.08-.43-.09-.61,0-1.16-1.46-1.91-.87-3.32.23-.54-.35-1.08-1.08-1.1Zm21.4-115.9-.24-.17,0,.09.3.06a27.59,27.59,0,0,1-2.9,4.65,2.77,2.77,0,0,0,.73.4l.33.22.1-.23c.38-.75.63-1.6,1.47-2l.19,0-.15-.19a2.14,2.14,0,0,1,.73-1.42C116.54,25.87,116.11,25.55,115.3,25.31ZM66.35,21.59a19.53,19.53,0,0,1-1.51-2.39c-.49-1.09-1.12-1.38-2.13-.74,1,.7,1.3,1.06,1.23,2.76l-.37,1c-.55-.86-1-1.59-1.48-2.33-.75-1.24-.75-1.24-2.14-.53.55,0,.75.28,1,.61.75,1.17,1.5,2.34,2.26,3.5.14.22.2.59.56.5s.33-.44.35-.7c0-.67,0-1.34.06-2l.14-.89c.48.74.87,1.38,1.31,2,.21.3.3.92.75.78s.36-.72.34-1.15c.41-1.57-.24-3.29.85-4.93l-2.25.64c1.24,0,1.39.71,1.28,1.66C66.48,20.08,66.42,20.83,66.35,21.59ZM65.13,146.75a4,4,0,0,1,.19-1.69c.06-.49.21-.81.78-.7.45.27.44.8.66,1.4a7,7,0,0,0,.5-2.56c-.4.62-.69,1-1.17.94s-.48-.49-.42-.87.15-.85.22-1.27a2.35,2.35,0,0,1,1.6.28c.68.26.4.95.54,1.62.61-1.86.61-1.87-1-2.18-.38-.08-.77-.13-1.15-.2s-.81-.32-1.27-.18c.42.83-.23,4.42-1,5.34.52.07,1,.38,1.52.28,2.32.88,2.51.79,2.65-1.48C67.44,147.2,66.33,147.09,65.13,146.75ZM109.31,27.49c-1.7.11-1.76-1.11-1.74-2.69-.41.88-1.1,1.52-.69,1.88.65.57,1.31,1.47,2.43,1.18,1.66-.55,1.91-1.61.75-3.08-.34-.43-.8-.8-.74-1.44s.76-.72,1.26-1c-.75-.29-1.4-.32-1.9.4a1.49,1.49,0,0,0,0,1.89c.21.29.45.56.67.84A1.25,1.25,0,0,1,109.31,27.49ZM98.5,23.6c2,1,2.48.79,2.5-1.62-.44,1.61-1.32,1.89-2.51,1.45-.62-1,.05-1.72.48-2.49.75.12.72.85,1,1.54a5.69,5.69,0,0,0,.52-2.42c-.27.92-1,.68-1.53.68.2-2.1.33-2.23,1.91-1.83.67.39.34,1.12.55,1.67.2-.76,1.15-1.75-.55-1.94A11,11,0,0,0,98.56,18c-.12,0-.25-.09-.38-.12s-.05,0-.07.07l.37.14a21.48,21.48,0,0,1-1.65,5A3.77,3.77,0,0,0,98.5,23.6ZM77.89,146.27l-.59.84c-.2-1.51-1-2.7-.66-4.15H74.85c.83.95.78,2.24,1.24,3.33.32.77.21,2.17.94,2.18s.75-1.4,1-2.21l.47-1a17.3,17.3,0,0,0,.59,2c.19.44,0,1.28.63,1.27s.51-.87.75-1.34c0-.06,0-.16,0-.24a.43.43,0,0,0,.14-.68.86.86,0,0,0-.34.69.28.28,0,0,1-.09.07s-.1,0-.1,0a11,11,0,0,1-.83-3.19c.06-1.14-.51-.85-1.07-.86a3.38,3.38,0,0,0-.69.11C78.82,144.1,78,145.21,77.89,146.27ZM42.35,65.08c.75,0,1,.29,1,1,0,2.56,0,5.12,0,7.67,0,.78.11,1.56-1.1,1.56,2.51.1,4.94.1,7.37.1.27,0,.62.06.65-.34.07-1.2.11-2.4.18-3.76-.53.38-.38.73-.42,1-.29,2.14-1,2.74-3.13,2.79-.24,0-.48,0-.72,0-.8.1-1.17-.17-1.13-1,.06-1.28,0-2.56,0-3.84a3.26,3.26,0,0,1,2,.07c.78.3.6,1.2,1,1.78A8.43,8.43,0,0,0,48,67.89c-.68,1.89-.94,2-2.95,1.71,0-1.2,0-2.4,0-3.59,0-.3-.1-.64.29-.83a3.59,3.59,0,0,1,4.23,1.63c0,.47-.13,1,.29,1.49a2.19,2.19,0,0,0,.15-.42c0-.51,0-1,0-1.53s.54-1.5-.69-1.5c-2.31,0-4.63,0-6.94.06l-.15.1ZM59.56,67a21.24,21.24,0,0,0-1.34,3.7c-.87,1.59-.55,3.89-2.79,4.69h4.71a2,2,0,0,0-1.32-.31c-.68-.08-1.19-.36-1.11-1.11s0-2,1-2.36c1.65-.61,2.62,0,3.12,1.68,0,.15.1.3.16.45.27.7.56,1.41-.54,1.69h3.81c-1-.16-1.19-1-1.42-1.76-.69-2.29-1.36-4.59-2.14-6.85-.24-.72-.08-2.05-1-2S59.82,66.16,59.56,67ZM46.75,89.7l.24.24c-.64,1.47-1.31,2.92-1.91,4.4-.92,2.25-1.94,4.48-1.81,7a2.55,2.55,0,0,0,2.72,2.7A7.19,7.19,0,0,0,50.22,103a26.75,26.75,0,0,0,11.2-13.35A5.72,5.72,0,0,0,61.91,86c-.22-.84-.17-1.29.85-1.23.28,0,.57-.25.85-.4s.41-.34.27-.58-.46-.18-.63,0c-1.17,1-1.9.37-2.53-.64-.28-.45-.6-.74-1.17-.59a1,1,0,0,0-.82.78,1.05,1.05,0,0,0,.72,1.13c1.47.61,1.29,1.69.94,2.86a28.79,28.79,0,0,1-10.57,14.75,5.52,5.52,0,0,1-3.66,1.27,1.76,1.76,0,0,1-1.91-1.85,7.07,7.07,0,0,1,.5-2.81A43.71,43.71,0,0,1,51,87.09c.17-.23.56-.42.33-.81s-.56-.27-.87-.3a3.45,3.45,0,0,0-2.63,1.24c-3.69,3.31-7.35,6.66-10.7,10.32a1.72,1.72,0,0,1-1.23.82l1.85-2.61C40,92.5,42.3,89.29,43.81,85.6c.45-1.08,1.17-2.31.26-3.4s-2.35-.82-3.6-.58a22.57,22.57,0,0,0-11.68,6.22,14.3,14.3,0,0,0-4,5.87c-.48,1.55-.11,2.67,1.06,3.34,2.29,1.31,7.39-.44,8.43-2.91,0,0,0-.07-.09-.18-.46,0-.71.41-1,.66a8.24,8.24,0,0,1-2.85,1.72c-1.18.34-2.45.62-3.39-.38s-.43-2.23.09-3.25a20.19,20.19,0,0,1,12.23-10.1c1.08-.36,2.36-.51,3.14.44s0,1.92-.39,2.81a66,66,0,0,1-5.66,9.45c-1.77,2.62-3.59,5.2-5.3,7.85-.43.68-1.15,1.77-.3,2.37s1.55-.45,2.09-1.11c2.17-2.61,4.26-5.29,6.45-7.89A34.09,34.09,0,0,1,46.75,89.7ZM124,99.55l.25.24c-1.24,2.7-2.66,5.3-5.08,7.14-1.66,1.27-2.66,1-3.56-.8,0-.09-.16-.14-.25-.21a2.27,2.27,0,0,0,2.63,2.79c2.08-.4,3.43-1.84,4.62-3.41,2.77-3.64,4.56-7.87,6.89-11.77.41-.7.23-1.25-.63-1.41-.28-.06-.51-.08-.67-.39a1.8,1.8,0,0,0-2.18-.8,7.84,7.84,0,0,0-3.23,1.5,23.4,23.4,0,0,0-4.46,4.65,14.32,14.32,0,0,1-4.08,3.83c-.88.51-1.24.26-1.23-.76a4.3,4.3,0,0,1,.69-2.13,51.86,51.86,0,0,1,3.43-4.77c.31-.43.81-.92.28-1.48a1.28,1.28,0,0,0-1.56-.09,9.33,9.33,0,0,0-2.55,1.77c-1.71,1.56-3.4,3.14-5.1,4.71l-.24-.23a11.92,11.92,0,0,1,.66-1.4c.68-1.13,1.41-2.23,2.12-3.34.25-.4.39-.83-.06-1.18s-.82-.17-1.16.19c-.16.18-.3.37-.46.56q-2.16,2.64-4.34,5.27a14.81,14.81,0,0,1-4.18,3.37c-.49.29-1.08.54-1.58.15a1.39,1.39,0,0,1-.18-1.67,8.45,8.45,0,0,1,1-1.89c1-1.41,2-2.77,3.05-4.16.24-.32.71-.67.21-1.12a1.11,1.11,0,0,0-1.43-.18,4.38,4.38,0,0,0-1.21,1.14,28.35,28.35,0,0,0-1.93,3,10.4,10.4,0,0,1-5,4.48c-1.52.66-2.45-.15-2.16-1.78a9.13,9.13,0,0,1,1.33-3.19A93.87,93.87,0,0,1,99,87.88c.27-.35.8-.75.28-1.22a1.13,1.13,0,0,0-1.45,0,7.39,7.39,0,0,0-.89.79A36.88,36.88,0,0,0,93.58,92c-.91-1.41-2.16-1.07-3.33-.64a12.8,12.8,0,0,0-5.39,4.27,36,36,0,0,1-3.63,4,7.35,7.35,0,0,1-2.75,1.67c-1.28.39-1.92-.12-1.9-1.45A7.69,7.69,0,0,1,78.07,96a90.58,90.58,0,0,1,6-8c.3-.38.9-.83.4-1.33a1.15,1.15,0,0,0-1.71.13,12.86,12.86,0,0,0-1.46,1.59c-.85,1.15-1.64,2.35-2.46,3.53a2.23,2.23,0,0,0-2.76-.76,11.38,11.38,0,0,0-5.59,4,31,31,0,0,1-5.71,5.61,5.46,5.46,0,0,1-2.28,1,1.45,1.45,0,0,1-1.86-1.23,1.66,1.66,0,0,1,1.26-2.19,10.48,10.48,0,0,0,6-3.31,2,2,0,0,0,.42-2.54,1.88,1.88,0,0,0-2.49-.47A11.32,11.32,0,0,0,59.24,99c-.8,2.27,1,4,3.33,3.43a10.9,10.9,0,0,0,4.32-2.49c.34-.27.6-.7,1.11-.8,0,2.11.57,2.92,2.1,3.12a3.11,3.11,0,0,0,2.54-1.12c.93-.83,1.81-1.73,2.81-2.68,0,.72,0,1.24,0,1.76.12,1.66,1.36,2.36,3.12,1.77a12.18,12.18,0,0,0,4.22-3c0,2.1.49,2.85,1.86,3.18a2.79,2.79,0,0,0,2.69-1c.93-.92,1.72-2,2.58-3l.38.33a1.64,1.64,0,0,1,0,.44,2.54,2.54,0,0,0,.78,2.83c1,.73,2.06.22,3.06-.23a20.61,20.61,0,0,0,3.11-2.21l.1.1c0,.2,0,.4,0,.6,0,2,1,2.76,2.91,2.18a7.4,7.4,0,0,0,2.9-1.84l3-2.79a3.2,3.2,0,0,1-.46,1.62,3.46,3.46,0,0,0-.23,2c.24.89.83,1.08,1.44.42s1-1.24,1.51-1.86a31.35,31.35,0,0,1,5.62-6l.16.17c-.43.77-.85,1.53-1.29,2.29a9.39,9.39,0,0,0-1.31,3.69,1.82,1.82,0,0,0,.66,1.93,1.87,1.87,0,0,0,2-.12c.5-.31,1-.7,1.45-1s1-1.06,1.67-1.4c.07.21.13.35.16.49.55,2.3,2.18,2.88,4.08,1.45A8.44,8.44,0,0,1,124,99.55Zm-20.12-24.2h3.83c-1-.13-1.15-.71-1.13-1.59.07-2.36,0-4.71,0-7.07,0-.86-.12-1.72,1.23-1.69a7.74,7.74,0,0,0-4.19.1c1.1-.08,1.19.47,1.14,1.19a11.13,11.13,0,0,0,0,2.16c.13,1.07-.28,1.35-1.33,1.32-2.92-.06-2.9,0-2.93-3,0-.91-.12-1.8,1.16-1.92h-4c1.05.08,1.06.75,1.05,1.53,0,2.51,0,5,0,7.54,0,.73.12,1.49-1,1.42h4c-.31-.52-1.14,0-1.17-.73,0-1.43-.51-3.08.18-4.22.48-.77,2.17-.15,3.31-.25.51,0,.71.19.7.7,0,1,0,1.92,0,2.87C104.79,74.44,105,75.24,103.91,75.35Zm-77.18,0h3.93c-1.34-.1-1.15-1-1.14-1.91a12,12,0,0,0,0-1.8c-.16-1.19.23-1.58,1.48-1.53,2.76.1,2.77,0,2.75,2.87,0,.87.41,1.94-.84,2.46h3.81c-1.11-.54-1.12-.54-1.12-1.81,0-2.36,0-4.72,0-7.07,0-.85,0-1.63,1.22-1.58a7.83,7.83,0,0,0-4.17.07c1,0,1.2.45,1.13,1.19a13.35,13.35,0,0,0,0,2.28c.09.93-.21,1.23-1.18,1.22-3.06,0-3,0-3.07-3.07,0-.9-.05-1.72,1.25-1.78a12.77,12.77,0,0,0-4.14,0c1.05,0,1.11.62,1.1,1.42,0,2.55,0,5.11,0,7.66C27.74,74.83,27.65,75.38,26.73,75.38Zm114.49,21c-.93.07-1.11.58-1.43.9a8.67,8.67,0,0,1-3.54,2.59c-1,.32-1.27.14-1-.92.75-2.9.64-6.08,2.68-8.59a.7.7,0,0,0-.08-1,.87.87,0,0,0-1-.17,3.31,3.31,0,0,0-.88.61c-2.3,2.22-4.62,4.42-6.87,6.69a6.34,6.34,0,0,0-1.82,2.35c1-.1,1.07-.11,1.37.9.84,2.83,3.28,2.87,5.16,1.88a14,14,0,0,1,2.29-1C138.3,100,139.75,98.36,141.22,96.34ZM70.62,75.47c1.36,0,2.71,0,4.07,0,3.42,0,5-1.62,5.22-5,.13-2.42-.77-4.34-2.48-5-2.24-.93-4.56-.32-6.91-.34,1.07,0,1.12.68,1.11,1.47q-.06,3.6,0,7.2C71.64,74.52,71.68,75.23,70.62,75.47Zm47.19.26a4.07,4.07,0,0,0,3.88-2.1A7.2,7.2,0,0,0,122.3,68a4.39,4.39,0,0,0-4-3.54,4.26,4.26,0,0,0-4.46,3.24,7.18,7.18,0,0,0,.26,5.48A4,4,0,0,0,117.81,75.73Zm17.77-7.08c.43-1.18.06-2.34.1-3.5,0-.46-.42-.4-.72-.4q-3.36,0-6.71,0c-.31,0-.69,0-.71.42a10.05,10.05,0,0,0,0,3.46,9.09,9.09,0,0,0,.27-1.34c.18-1,.54-1.83,1.69-2.06.76-.16,1.18-.12,1.16.86-.06,2.4,0,4.79,0,7.19,0,.86.35,1.9-1,2.11h4.19c-.56-.51-1.5,0-1.48-1.08.08-2.83,0-5.67,0-8.5,0-.55.23-.71.73-.64,1.11.14,2,.52,2.18,1.81C135.35,67.54,135.48,68.09,135.58,68.65ZM79.2,15.75H77.4c1,1.72,2.39,3.27,1.42,5.41h1.77a.73.73,0,0,1-.39-.86,4.31,4.31,0,0,0-1-3.45C78.9,16.54,78.61,16.14,79.2,15.75ZM60.05,139.87c.4,1.18-.49,1.9-.64,2.73a4.62,4.62,0,0,1-1.1,2.56l1.44.44c.6-1.79.83-3.61,2-5.11Zm-1.77,2.23c-.64-.59-.47-1.66.46-2.68l-1.46-.48a14.39,14.39,0,0,1-1.74,5.21c.17.07.44.14.68.26.61.33.63.18.74-.48S57,142.09,58.28,142.1Zm-13-115.66a1.06,1.06,0,0,1,1,.65c.55.85,1.06,1.71,1.66,2.53.88,1.19.84,1.22,2.22,0-.85.39-1-.08-1.31-.46a16,16,0,0,1-1.69-2.59C46.57,25.29,46,25.71,45.25,26.44ZM103,144.33c-.91.14-1-.32-1.12-.7a22.76,22.76,0,0,1-1.07-3c-.3-1.37-.92-1.09-1.55-.68a23.82,23.82,0,0,1,1.94,5.13A6.38,6.38,0,0,0,103,144.33Zm-56.67-6.94A1.34,1.34,0,0,0,47.76,136a1.26,1.26,0,0,0-1.32-1.39A1.28,1.28,0,0,0,45,136,1.32,1.32,0,0,0,46.37,137.39Zm69.16-1.24a1.42,1.42,0,0,0-1.32-1.53,1.44,1.44,0,0,0-1.45,1.44,1.3,1.3,0,0,0,1.41,1.31A1.27,1.27,0,0,0,115.53,136.15ZM42.3,35.28a2.42,2.42,0,0,1-.41-.29c-1-1.21-1.94-2.4-2.85-3.64-.31-.44-.47-.13-.62,0s-.62.29-.24.72c1,1.17,2,2.36,3,3.56a.41.41,0,0,0,.61.1A5.66,5.66,0,0,0,42.3,35.28Zm62.46,53.61c-.76,0-1.26.22-1.2,1A1.19,1.19,0,0,0,104.85,91a1.08,1.08,0,0,0,1.23-1C106.06,89.12,105.36,88.91,104.76,88.89Zm-1,53.25a1.84,1.84,0,0,1-.9,2.14C104.75,144.05,104.8,143.92,103.81,142.14ZM111.31,23v1.85C112.42,23.36,112.42,23.36,111.31,23ZM80.92,146l.85-2.11c.06-.15.34-.32,0-.45s-.55-.08-.53.25C81.3,144.48,80.74,145.14,80.92,146Zm36.6-117.5c1.1-1.36,1.1-1.36-.42-1.8C117.91,27.31,117.59,27.91,117.52,28.49ZM82.09,15.73H80c.61.42.61.42.78,1.14a4.14,4.14,0,0,1,.5-.65A4.75,4.75,0,0,1,82.09,15.73Zm34.43,12.69c-1,.09-1,.09-.86,1.39A3.72,3.72,0,0,0,116.52,28.42Zm-70.64.84s-.05-.07-.07-.07-.06,0-.08.06.05.06.07.06S45.85,29.28,45.88,29.26Zm70.83-1.17-.07-.09s-.07.05-.07.08,0,.05.06.08ZM47,25.38l0,.05H47Zm73,9.79-.09.08s.06.07.09.07.06,0,.09-.07ZM93.89,19.91l-.07-.09s-.07.05-.07.08,0,.06.06.09Zm.25-.48-.07-.09s-.08.05-.08.08,0,.06.07.09Z"/><path class="cls-2" d="M110.49,141c.24,1.41-.64,1-1.39.87a17.93,17.93,0,0,1-2.4-4.84c.75-.28,1.58-.64,2.18.17.87,1.18,1.86,2.38.9,4.14Z"/><path class="cls-2" d="M93.9,141.21c1.34.81,1.55,1.47.76,2.46-1,.21-1.58-.85-1.22-2.07a2.33,2.33,0,0,1,.14-.33Z"/><path class="cls-2" d="M72.55,19.49c-.85.47-1.18,0-1.43-.74,0-.12,0-.25,0-.37C72.4,17.74,72.14,19,72.55,19.49Z"/><path class="cls-2" d="M42.34,64.91a1,1,0,0,1,0,.17L42.19,65Z"/><path class="cls-2" d="M118.94,100a4.9,4.9,0,0,1,.75-1.94,17.07,17.07,0,0,1,5.77-5.44,8.11,8.11,0,0,1,1.22-.47c.42-.16.91-.28,1.2.15s-.18.71-.4,1a65.43,65.43,0,0,1-4.06,5.46,7.82,7.82,0,0,1-3,2.36C119.48,101.55,118.9,101.13,118.94,100Z"/><path class="cls-2" d="M69.41,100.34a3.74,3.74,0,0,1,.73-2.15A17.18,17.18,0,0,1,75.64,93a6.92,6.92,0,0,1,1.54-.63.91.91,0,0,1,1,.15c.34.4-.11.64-.3.9-1.34,1.83-2.64,3.7-4.15,5.41a10.6,10.6,0,0,1-2.66,2.38c-.4.23-.82.54-1.33.21S69.48,100.6,69.41,100.34Z"/><path class="cls-2" d="M84.15,100.4A4.75,4.75,0,0,1,85.08,98a17.76,17.76,0,0,1,5.28-5A7.42,7.42,0,0,1,92,92.33c.38-.12.86-.16,1.09.24s-.2.56-.38.8A47.18,47.18,0,0,1,87,100.3a4.46,4.46,0,0,1-1.57,1.08C84.63,101.64,84.16,101.28,84.15,100.4Z"/><path class="cls-2" d="M62.58,97.57c-.42,0-.68.08-.74-.14A.69.69,0,0,1,62,96.9a13.09,13.09,0,0,1,4.16-3.85c.42-.23.94-.44,1.34,0s0,.9-.24,1.25A8.39,8.39,0,0,1,62.58,97.57Z"/><path class="cls-2" d="M108.24,98.16c-.11.09-.29.26-.3.24-.19-.17,0-.32.06-.47Z"/><path class="cls-2" d="M124,99.55c.06-.14.16-.31.3-.22s.08.31,0,.46Z"/><path class="cls-2" d="M97.27,99.43l.12-.13c.11.09.07.16,0,.23Z"/><path class="cls-2" d="M106.37,97.46l-.07.06s0,0,0-.08,0,0,.07-.06Z"/><path class="cls-2" d="M114,93.84l.25-.09-.09.26Z"/><path class="cls-2" d="M35.91,98.49c0,.52-.22.71-.6.7C35.29,98.82,35.55,98.69,35.91,98.49Z"/><path class="cls-2" d="M46.75,89.7c.06-.14.17-.32.3-.23s.05.32-.06.47Z"/><path class="cls-2" d="M135.26,91.51A26.46,26.46,0,0,1,133.89,99a2.05,2.05,0,0,1-3,1.27,2.29,2.29,0,0,1-1-3.33,21.47,21.47,0,0,1,3-3.38C133.59,92.93,134.29,92.36,135.26,91.51Z"/><path class="cls-2" d="M73.33,70.28c0-1.39,0-2.79,0-4.18,0-.68.24-.9.9-.91a3,3,0,0,1,3.41,2.63,11.54,11.54,0,0,1,0,4.86c-.47,2.16-1.9,2.42-3.67,2.47-.65,0-.62-.47-.62-.92Z"/><path class="cls-2" d="M115.54,70a11.2,11.2,0,0,1,.28-3.32,2.15,2.15,0,0,1,2-1.86,2,2,0,0,1,2.28,1.67,14.15,14.15,0,0,1,0,7.08,2.07,2.07,0,0,1-2.27,1.7,2.1,2.1,0,0,1-2.05-1.83A12,12,0,0,1,115.54,70Z"/><path class="cls-2" d="M58.61,70.67a16.48,16.48,0,0,0,1.07-3.2c.34-.2.39,0,.46.28.23.71.5,1.42.67,2.15.1.39.64,1.06,0,1.15S59.17,71.64,58.61,70.67Z"/><path class="cls-2" d="M87.8,147.8l-.34.18c-1,.16-1.53-.27-1.73-1.28a15.71,15.71,0,0,1-.23-2.36c0-1,.4-1.58,1.48-1.5C88.13,143.73,88.51,146.06,87.8,147.8Z"/></g></g></g></svg>