<svg xmlns="http://www.w3.org/2000/svg" width="685" height="188" viewBox="0 0 685 188">
  <g fill="none" transform="matrix(1 0 0 -1 .074 187.894)">
    <path fill="#2648CE" d="M40.6117711,179.017279 L31.3650108,170.214363 L44.8282937,156.677106 L58.3655508,143.139849 L29.1457883,113.920086 C13.0934125,97.8677106 -2.13301599e-14,84.4784017 0.0724403655,84.1825054 C0.221922246,83.8866091 17.9017279,65.9848812 39.5021598,44.3844492 L78.6344492,5.10421166 L87.5113391,14.0550756 L96.462203,22.9319654 L82.924946,36.4692225 L69.387689,50.0804536 L98.6074514,79.1522678 C114.733801,95.2046436 127.901188,108.593952 127.901188,109.037797 C127.901188,109.481641 110.36933,127.383369 88.9168467,148.835853 L49.8585313,187.820194 L40.6117711,179.017279 Z M83.2948164,115.991361 C87.2154428,112.144708 90.174406,108.519978 90.174406,107.706263 C90.174406,105.856911 54.3709503,70.7192225 52.1517279,70.4233261 C50.9681425,70.275378 48.8228942,72.0507559 43.7186825,77.1549676 C40.0199784,81.0016199 36.913067,84.5523758 36.913067,85.1441685 C36.913067,86.7715983 73.3083153,122.796976 75.0097192,122.796976 C75.8974082,122.796976 79.2262419,120.059935 83.2948164,115.991361 Z"/>
    <polygon fill="#000" points="138.258 158.674 138.258 146.469 162.299 146.469 186.341 146.469 186.341 89.139 186.341 31.809 198.916 31.809 211.492 31.809 211.492 89.139 211.492 146.469 235.016 146.617 258.465 146.839 258.687 158.896 258.835 170.88 198.546 170.88 138.258 170.88"/>
    <path fill="#000" d="M459.896868 154.827754L459.674946 140.180886 449.836393 139.811015 440.071814 139.441145 450.058315 129.454644 460.044816 119.468143 459.600972 92.0977322C459.009179 59.4011879 459.600972 51.0421166 463.00378 43.7186825 467.072354 35.137689 474.173866 30.4773218 483.938445 30.1814255 488.820734 30.0334773 496.144168 30.7732181 497.549676 31.6609071 498.141469 32.0307775 498.067495 34.4719222 497.327754 41.0556156 496.809935 45.937905 496.366091 50.5242981 496.292117 51.1900648 496.292117 52.2257019 495.478402 52.5215983 492.149568 52.6695464 487.341253 52.8914687 485.639849 54.5188985 484.456263 59.6231102 484.086393 61.1765659 483.716523 75.3795896 483.716523 91.2100432L483.716523 119.838013 495.182505 119.838013 506.648488 119.838013 506.648488 129.824514 506.648488 139.737041 495.404428 139.958963 484.086393 140.180886 484.012419 154.605832 484.012419 169.030778 472.028618 169.2527 460.044816 169.400648 459.896868 154.827754zM610.212203 100.604752L610.212203 31.8088553 620.864471 31.8088553 631.442765 31.8088553 632.034557 99.7910367C632.330454 137.221922 632.330454 168.143089 632.034557 168.586933 631.738661 169.104752 627.670086 169.400648 620.864471 169.400648L610.212203 169.400648 610.212203 100.604752zM266.972462 140.25486C246.259719 135.890389 230.651188 120.281857 226.212743 99.4951404 224.733261 92.5415767 225.103132 76.2672786 226.87851 69.4616631 230.947084 54.3709503 240.267819 42.8309935 254.026998 35.9514039 261.12851 32.4006479 266.676566 30.9951404 275.849352 30.5512959 285.613931 30.1074514 292.271598 31.4389849 300.556695 35.4335853 314.907667 42.4611231 324.672246 54.5928726 328.814795 70.6452484 330.664147 77.7467603 330.738121 93.8731102 328.888769 100.530778 323.636609 119.764039 311.356911 133.227322 293.825054 138.849352 286.723542 141.142549 274.36987 141.808315 266.972462 140.25486zM283.394708 119.024298C300.926566 115.325594 311.208963 96.2402808 306.548596 76.3412527 302.258099 58.2915767 285.835853 48.0091793 269.339633 53.1133909 257.87365 56.738121 250.25432 66.3547516 248.330994 79.7440605 244.928186 104.229482 262.164147 123.536717 283.394708 119.024298zM388.215983 139.589093C381.706263 137.36987 375.788337 133.74514 369.722462 128.12311L364.618251 123.388769 364.618251 131.969762 364.618251 140.550756 352.412527 140.550756 340.206803 140.550756 340.206803 70.275378 340.206803 0 352.412527 0 364.618251 0 364.618251 21.4524838C364.618251 33.2883369 364.914147 42.9049676 365.210043 42.9049676 365.50594 42.9049676 366.911447 41.7213823 368.316955 40.3158747 373.717063 34.6938445 386.736501 30.3293737 397.758639 30.3293737 417.657667 30.4033477 435.633369 43.0529158 442.808855 62.0642549 445.545896 69.387689 446.803456 77.0070194 446.803456 86.9935205 446.803456 97.2019438 445.471922 104.303456 442.291037 111.922786 436.37311 125.977862 422.909827 137.591793 409.150648 140.476782 402.640929 141.808315 393.764039 141.438445 388.215983 139.589093zM399.460043 118.062635C407.893089 116.139309 415.438445 109.62959 419.507019 100.826674 421.430346 96.7580994 421.87419 94.8347732 422.170086 88.8428726 422.318035 84.7742981 422.096112 79.8920086 421.652268 77.524838 419.654968 68.1301296 413.737041 60.2149028 405.230022 55.7024838 401.531317 53.7791577 400.569654 53.6312095 393.098272 53.6312095 385.62689 53.6312095 384.591253 53.7791577 380.522678 55.7764579 362.177106 64.8012959 357.294816 93.0593952 371.275918 108.963823 378.599352 117.24892 388.881749 120.577754 399.460043 118.062635zM548.443844 140.846652C547.63013 140.698704 545.115011 140.180886 542.895788 139.737041 527.953024 136.704104 516.634989 124.868251 513.528078 108.889849 512.862311 105.561015 512.492441 102.602052 512.714363 102.454104 512.936285 102.232181 517.966523 102.232181 523.958423 102.528078 534.388769 103.045896 534.758639 103.11987 534.758639 104.673326 534.758639 107.632289 537.051836 112.958423 539.566955 115.917387 545.706803 123.166847 559.465983 124.720302 567.233261 119.098272 571.153888 116.213283 572.633369 113.106371 573.077214 106.892549L573.37311 101.714363 557.394708 99.2732181C538.75324 96.3882289 533.944924 95.2786177 527.435205 92.3196544 514.11987 86.4017279 506.648488 75.5275378 506.648488 62.212203 506.722462 42.7570194 521.073434 29.5896328 542.303996 29.5896328 554.287797 29.5896328 561.759179 32.3266739 568.934665 39.2802376L573.225162 43.4967603 573.225162 37.6528078 573.225162 31.8088553 585.800756 31.8088553 598.37635 31.8088553 598.37635 69.7575594C598.37635 111.99676 598.154428 113.920086 593.568035 123.314795 589.647408 131.303996 582.61987 136.556156 572.041577 139.441145 567.825054 140.550756 551.476782 141.586393 548.443844 140.846652zM573.225162 79.0043197C573.151188 67.9082073 566.345572 57.1819654 556.654968 52.8174946 553.030238 51.1900648 551.032937 50.7462203 546.594492 50.8201944 538.235421 50.8201944 533.279158 54.075054 531.947624 60.4368251 530.24622 68.3520518 534.684665 74.4179266 544.0054 77.0070194 546.964363 77.8207343 569.452484 81.8893089 571.967603 82.037257 573.00324 82.1112311 573.225162 81.5194384 573.225162 79.0043197zM661.62419 62.9519438C657.185745 60.9546436 653.413067 56.3682505 652.451404 51.8558315 650.232181 41.3515119 657.777538 31.8088553 668.281857 31.8088553 673.164147 31.8088553 677.38067 33.8061555 680.635529 37.7267819 689.586393 48.0831533 682.041037 64.3574514 668.281857 64.3574514 666.284557 64.3574514 663.25162 63.6916847 661.62419 62.9519438zM673.460043 60.7327214C681.079374 57.1819654 684.038337 49.1927646 680.487581 41.7213823 675.975162 32.5485961 662.659827 31.512959 657.037797 39.9460043 652.155508 47.4173866 654.892549 57.0340173 663.103672 60.7327214 666.87635 62.4341253 669.761339 62.4341253 673.460043 60.7327214z"/>
    <path fill="#000" d="M661.99406,48.0831533 C661.99406,39.7240821 662.068035,39.2062635 663.473542,39.2062635 C664.805076,39.2062635 664.953024,39.7240821 664.953024,43.274838 C664.953024,46.3077754 665.24892,47.3434125 665.988661,47.3434125 C667.24622,47.3434125 669.539417,44.5323974 670.87095,41.425486 C671.462743,40.0939525 672.350432,39.2062635 673.164147,39.2062635 C674.939525,39.2062635 674.939525,39.5761339 672.720302,43.3488121 L670.87095,46.4557235 L673.090173,48.674946 C675.75324,51.411987 675.901188,52.7435205 673.460043,55.1106911 C671.906587,56.738121 671.018898,56.9600432 666.802376,56.9600432 L661.99406,56.9600432 L661.99406,48.0831533 Z M671.462743,53.8531317 C673.829914,51.4859611 671.536717,48.8228942 667.24622,48.8228942 C665.100972,48.8228942 664.953024,48.9708423 664.953024,51.7818575 C664.953024,54.7408207 664.953024,54.7408207 667.764039,54.7408207 C669.317495,54.7408207 670.944924,54.3709503 671.462743,53.8531317 Z"/>
  </g>
</svg>
