<svg width="1049" height="208" viewBox="0 0 1049 208" fill="none" xmlns="http://www.w3.org/2000/svg">
<g clip-path="url(#clip0_350_19943)">
<g clip-path="url(#clip1_350_19943)">
<path d="M154.656 58.0859C154.761 58.6597 154.957 59.2343 154.957 59.8081C154.972 83.6679 154.96 107.528 155 131.387C155.002 132.677 154.508 133.293 153.461 133.872C143.787 139.223 134.138 144.623 124.484 150.011C123.958 150.304 123.444 150.621 122.925 150.926C122.788 150.166 122.532 149.406 122.531 148.646C122.505 137.753 122.515 126.859 122.508 115.966C122.508 115.264 122.447 114.561 122.408 113.723C121.922 113.908 121.667 113.971 121.444 114.095C111.104 119.865 100.767 125.641 90.4299 131.416C90.3012 131.379 90.1717 131.341 90.043 131.303C90.0463 119.913 90.0405 108.524 90.0705 97.1344C90.0731 96.0665 90.3079 94.9986 90.435 93.9316C93.952 91.9873 97.4749 90.0524 100.986 88.0971C115.5 80.0151 130.012 71.9313 144.519 63.8365C147.912 61.9431 151.278 60.0039 154.656 58.0859Z" fill="#1F009D"/>
<path d="M90.0456 131.303C90.1743 131.341 90.3039 131.378 90.4326 131.416C90.2947 132.207 90.0631 132.994 90.0389 133.788C89.9804 135.679 90.0188 137.573 90.0188 139.466C90.0188 148.39 90.0255 157.314 90.008 166.237C90.0063 167.144 90.2721 168.182 89.2265 168.78C79.1058 163.127 68.9892 157.467 58.8643 151.822C50.1435 146.96 41.4085 142.126 32.6919 137.256C30.2389 135.885 27.8292 134.433 25.4004 133.018C25.4121 131.934 25.433 130.85 25.4338 129.766C25.4347 107.067 25.4347 84.3696 25.4347 61.671C25.4347 61.0607 25.3979 60.448 25.453 59.8428C25.4923 59.4131 25.6578 58.9961 25.8216 58.3613C26.9884 59.0114 27.9688 59.5606 28.9509 60.1047C33.7568 62.766 38.5685 65.4154 43.3668 68.0885C48.1067 70.7286 52.8348 73.3924 57.5679 76.046C57.5554 88.0335 57.5379 100.021 57.5504 112.009C57.5512 112.578 57.827 113.147 57.9741 113.716C68.1116 119.377 78.2482 125.042 88.3932 130.69C88.9014 130.972 89.4931 131.102 90.0456 131.303Z" fill="#6DCAFF"/>
<path d="M57.9743 113.715C57.8264 113.146 57.5514 112.578 57.5506 112.009C57.5381 100.022 57.5564 88.034 57.5681 76.0456C64.563 72.2139 71.5662 68.3966 78.551 64.5463C82.1265 62.5749 85.6712 60.5451 89.2292 58.5423C89.953 58.205 90.6985 57.9075 91.3981 57.5253C101.098 52.2282 110.804 46.9413 120.474 41.5891C121.768 40.8729 122.767 40.7661 124.135 41.5111C133.664 46.7006 143.249 51.7841 152.81 56.9134C153.45 57.2566 154.042 57.6931 154.655 58.0864C151.278 60.0043 147.912 61.9435 144.52 63.836C130.014 71.9308 115.501 80.0146 100.987 88.0967C97.4761 90.052 93.9532 91.9869 90.4361 93.9312C89.6814 93.6794 88.8698 93.5354 88.1828 93.159C83.4847 90.5808 78.8118 87.9535 74.1304 85.3431C69.5076 82.7649 64.8881 80.1808 60.2569 77.6178C59.6443 77.2788 58.9723 77.0508 58.2961 76.7567C57.7921 78.7518 57.625 102.487 57.9743 113.715Z" fill="#5429FF"/>
<path d="M89.2256 168.779C90.2703 168.182 90.0054 167.144 90.0071 166.237C90.0246 157.313 90.0179 148.389 90.0179 139.466C90.0179 137.573 89.9795 135.679 90.038 133.787C90.0631 132.993 90.2946 132.206 90.4317 131.416C100.769 125.641 111.106 119.865 121.446 114.095C121.668 113.971 121.924 113.907 122.409 113.723C122.449 114.561 122.509 115.263 122.51 115.965C122.516 126.859 122.506 137.752 122.532 148.645C122.534 149.406 122.789 150.165 122.927 150.925C116.746 154.359 110.565 157.791 104.386 161.228C100.012 163.66 95.6446 166.104 91.2683 168.532C90.6322 168.884 89.9778 169.31 89.2256 168.779Z" fill="#B9E5FF"/>
<path d="M89.229 58.5432C85.6701 60.5468 82.1263 62.5758 78.5508 64.5472C71.566 68.3975 64.5636 72.2157 57.5679 76.0465C52.8348 73.3929 48.1075 70.7291 43.3668 68.089C38.5676 65.4159 33.7559 62.7665 28.9509 60.1052C27.9688 59.5611 26.9884 59.0128 25.8216 58.3619C25.6578 58.9967 25.4923 59.4136 25.453 59.8433C25.3979 60.4493 25.4346 61.0629 25.4346 61.6723C25.4346 84.371 25.4346 107.069 25.433 129.768C25.433 130.852 25.4112 131.936 25.3995 133.02C25.2767 132.228 25.0468 131.435 25.046 130.644C25.0276 107.197 25.046 83.7498 25 60.3036C24.9967 58.5822 25.575 57.6381 27.0879 56.8405C36.5124 51.874 45.9009 46.8345 55.2603 41.7434C56.8441 40.8814 58.0418 40.895 59.665 41.8214C68.4543 46.8371 77.338 51.6833 86.1791 56.6075C87.2289 57.1923 88.2143 57.8957 89.229 58.5432Z" fill="#99DAFF"/>
<path d="M57.974 113.715C57.6246 102.487 57.7918 78.751 58.2949 76.7559C58.9719 77.05 59.6439 77.2779 60.2557 77.617C64.8869 80.1799 69.5064 82.764 74.1292 85.3422C78.8105 87.9526 83.4835 90.58 88.1824 93.1582C88.8694 93.5354 89.6818 93.6786 90.4357 93.9303C90.3087 94.9982 90.0747 96.0652 90.0713 97.1331C90.0412 108.522 90.0471 119.912 90.0437 131.302C89.4913 131.101 88.9004 130.971 88.3922 130.688C78.2481 125.042 68.1123 119.377 57.974 113.715Z" fill="#2900CE"/>
</g>
<path d="M248.298 127.872L250.943 146.554C244.408 148.525 238.237 149.511 232.428 149.511C223.82 149.511 217.596 147.643 213.759 143.907C210.025 140.171 208.158 134.203 208.158 126.004V83.9719H194V66.5362H208.158V42.8735H231.495V66.5362H249.698V83.9719H231.495V121.801C231.495 124.499 232.117 126.419 233.362 127.561C234.607 128.599 236.525 129.118 239.118 129.118C241.089 129.118 244.149 128.703 248.298 127.872Z" fill="white"/>
<path d="M299.396 65.1351C302.612 65.1351 307.02 66.0692 312.621 67.9373L308.264 88.4865C303.389 87.3449 299.863 86.7741 297.685 86.7741C292.499 86.7741 288.402 88.7978 285.394 92.8454C282.386 96.7892 280.882 102.238 280.882 109.191V147.488H257.545V66.5362H279.171V78.0562C283.527 69.4422 290.269 65.1351 299.396 65.1351Z" fill="white"/>
<path d="M366.472 66.5362H389.809V147.488H368.495V138.925C363.62 146.398 355.789 150.134 345.002 150.134C335.46 150.134 328.303 147.851 323.532 143.284C318.864 138.718 316.531 132.179 316.531 123.669V66.5362H339.868V117.442C339.868 125.641 343.861 129.741 351.848 129.741C361.597 129.741 366.472 124.603 366.472 114.329V66.5362Z" fill="white"/>
<path d="M441.344 130.363C445.597 130.363 449.383 129.637 452.702 128.184C456.021 126.627 459.962 123.929 464.526 120.089L477.283 134.722C466.6 144.997 454.413 150.134 440.722 150.134C427.446 150.134 416.866 146.242 408.983 138.458C401.204 130.675 397.315 120.296 397.315 107.323C397.315 94.5578 401.049 84.1276 408.517 76.0324C415.985 67.8335 426.045 63.734 438.699 63.734C451.042 63.734 460.533 67.3146 467.171 74.4757C473.912 81.6368 477.283 91.7038 477.283 104.677C477.283 107.583 477.18 110.592 476.972 113.706H419.874C422.363 124.811 429.52 130.363 441.344 130.363ZM438.388 81.9481C428.95 81.9481 422.934 87.0854 420.341 97.36H455.035C453.894 87.0854 448.345 81.9481 438.388 81.9481Z" fill="white"/>
<path d="M523.71 52.9924C520.702 52.9924 518.575 53.667 517.331 55.0162C516.086 56.2616 515.464 58.493 515.464 61.7103V66.5362H532.422V83.9719H515.464V147.488H492.127V83.9719H478.591V66.5362H492.127V60.7762C492.127 42.9254 501.15 34 519.198 34C524.799 34 530.711 34.9341 536.934 36.8022L532.889 54.0822C529.881 53.3557 526.821 52.9924 523.71 52.9924Z" fill="white"/>
<path d="M574.343 63.734C586.789 63.734 597.006 67.7816 604.992 75.8768C612.979 83.8681 616.972 94.1946 616.972 106.856C616.972 119.622 612.979 130.052 604.992 138.147C597.006 146.138 586.789 150.134 574.343 150.134C561.793 150.134 551.524 146.138 543.538 138.147C535.551 130.052 531.558 119.622 531.558 106.856C531.558 94.1946 535.551 83.8681 543.538 75.8768C551.524 67.7816 561.793 63.734 574.343 63.734ZM574.343 83.5049C568.638 83.5049 564.023 85.6324 560.496 89.8876C556.97 94.1427 555.206 99.7989 555.206 106.856C555.206 114.017 556.97 119.725 560.496 123.981C564.023 128.236 568.638 130.363 574.343 130.363C580.047 130.363 584.611 128.236 588.034 123.981C591.56 119.725 593.324 114.017 593.324 106.856C593.324 99.7989 591.56 94.1427 588.034 89.8876C584.507 85.6324 579.944 83.5049 574.343 83.5049Z" fill="white"/>
<path d="M674.006 66.5362H697.343V147.488H676.028V138.925C671.153 146.398 663.322 150.134 652.535 150.134C642.993 150.134 635.836 147.851 631.065 143.284C626.398 138.718 624.064 132.179 624.064 123.669V66.5362H647.401V117.442C647.401 125.641 651.394 129.741 659.381 129.741C669.131 129.741 674.006 124.603 674.006 114.329V66.5362Z" fill="white"/>
<path d="M754.479 63.734C763.502 63.734 770.555 66.2768 775.637 71.3622C780.824 76.4476 783.416 83.3492 783.416 92.067V147.488H760.079V98.6054C760.079 93.9351 758.887 90.3546 756.501 87.8638C754.219 85.2692 750.9 83.9719 746.544 83.9719C742.188 83.9719 738.713 85.3211 736.12 88.0195C733.527 90.7178 732.23 94.4022 732.23 99.0724V147.488H708.893V66.5362H730.519V75.2541C736.016 67.5741 744.003 63.734 754.479 63.734Z" fill="white"/>
<path d="M850.325 36.9578H873.662V147.488H852.036V137.68C846.332 145.879 837.878 149.978 826.676 149.978C816.201 149.978 807.592 146.086 800.85 138.303C794.212 130.415 790.893 120.037 790.893 107.168C790.893 94.1946 794.212 83.8162 800.85 76.0324C807.592 68.1449 816.253 64.2011 826.832 64.2011C836.893 64.2011 844.724 67.4184 850.325 73.853V36.9578ZM832.744 130.208C838.138 130.208 842.546 128.08 845.969 123.825C849.391 119.57 851.103 114.017 851.103 107.168C851.103 100.318 849.391 94.8173 845.969 90.6659C842.546 86.4108 838.19 84.2832 832.9 84.2832C827.403 84.2832 822.943 86.3589 819.52 90.5103C816.097 94.6616 814.386 100.214 814.386 107.168C814.386 114.121 816.045 119.725 819.364 123.981C822.683 128.132 827.143 130.208 832.744 130.208Z" fill="white"/>
<path d="M927.073 65.1351C930.289 65.1351 934.697 66.0692 940.298 67.9373L935.942 88.4865C931.067 87.3449 927.54 86.7741 925.362 86.7741C920.176 86.7741 916.079 88.7978 913.071 92.8454C910.063 96.7892 908.559 102.238 908.559 109.191V147.488H885.222V66.5362H906.848V78.0562C911.204 69.4422 917.946 65.1351 927.073 65.1351Z" fill="white"/>
<path d="M999.041 66.5362H1023L992.195 155.583C989.498 163.574 985.816 169.282 981.149 172.707C976.481 176.236 970.258 178 962.479 178C955.945 178 950.344 177.222 945.676 175.665L949.566 158.385C952.677 159.008 955.945 159.319 959.367 159.319C965.072 159.319 969.065 156.932 971.347 152.158L940.853 66.5362H965.435L971.658 85.373C976.948 101.044 980.578 112.512 982.549 119.777C984.831 111.578 988.305 100.11 992.973 85.373L999.041 66.5362Z" fill="white"/>
</g>
<defs>
<clipPath id="clip0_350_19943">
<rect width="1049" height="208" fill="white"/>
</clipPath>
<clipPath id="clip1_350_19943">
<rect width="130" height="128.03" fill="white" transform="translate(25 41)"/>
</clipPath>
</defs>
</svg>
