<?xml version="1.0" standalone="no"?>
<!DOCTYPE svg PUBLIC "-//W3C//DTD SVG 20010904//EN"
 "http://www.w3.org/TR/2001/REC-SVG-20010904/DTD/svg10.dtd">
<svg version="1.0" xmlns="http://www.w3.org/2000/svg"
 width="594.000000pt" height="160.000000pt" viewBox="0 0 594.000000 160.000000"
 preserveAspectRatio="xMidYMid meet">

<g transform="translate(0.000000,160.000000) scale(0.100000,-0.100000)"
fill="#000000" stroke="none">
<path d="M0 1175 c0 -2 47 -88 105 -191 l105 -186 0 -124 0 -124 40 0 40 0 0
128 0 127 104 185 104 185 -35 3 c-19 2 -40 1 -47 -1 -6 -3 -45 -68 -86 -145
-41 -78 -78 -142 -81 -142 -3 0 -41 65 -85 145 l-78 145 -43 0 c-24 0 -43 -2
-43 -5z"/>
<path d="M650 1167 c-74 -17 -108 -37 -157 -90 -52 -56 -69 -88 -81 -157 -20
-106 17 -210 99 -284 67 -60 128 -80 233 -74 131 7 218 65 271 180 l22 48 32
-64 c32 -65 71 -104 141 -142 28 -15 56 -19 140 -19 90 0 111 3 148 23 227
121 226 440 -2 552 -58 29 -76 33 -146 33 -70 0 -89 -4 -145 -32 -70 -35 -114
-80 -147 -153 l-21 -47 -27 58 c-62 131 -212 201 -360 168z"/>
<path d="M1690 720 l0 -430 55 0 55 0 0 144 0 143 108 5 c121 6 162 20 224 76
59 54 88 120 88 207 0 85 -24 142 -83 203 -66 67 -119 82 -297 82 l-150 0 0
-430z"/>
<path d="M3085 1141 c-46 -12 -90 -37 -121 -71 -16 -16 -32 -30 -36 -30 -5 0
-8 20 -8 45 0 45 0 45 -35 45 l-35 0 0 -280 0 -280 33 0 34 0 6 174 c4 126 10
184 22 212 58 140 246 170 305 50 18 -38 20 -61 20 -239 l0 -197 41 0 40 0 -5
198 c-3 108 -10 214 -16 235 -13 43 -60 102 -99 122 -34 17 -108 26 -146 16z"/>
<path d="M3680 1141 c-52 -17 -110 -52 -145 -88 -57 -58 -78 -107 -83 -194 -4
-66 -1 -84 20 -131 33 -71 75 -118 137 -152 164 -89 363 -27 449 139 35 67 37
177 5 246 -52 114 -153 180 -282 185 -42 2 -87 0 -101 -5z"/>
<path d="M5157 1136 c-70 -26 -97 -66 -97 -145 0 -44 5 -56 35 -89 19 -22 61
-53 92 -70 71 -39 87 -51 101 -79 19 -35 14 -60 -17 -95 -26 -29 -36 -33 -78
-33 -38 0 -58 6 -85 27 l-35 27 -22 -23 -22 -23 34 -30 c102 -89 263 -48 296
75 24 86 -9 138 -129 208 -35 21 -75 48 -87 60 -31 31 -30 78 2 109 32 33 76
32 133 -1 l44 -26 20 20 c25 24 19 35 -35 66 -55 32 -103 39 -150 22z"/>
<path d="M2390 845 l0 -285 30 0 30 0 0 133 1 132 127 -133 c118 -124 129
-134 159 -130 l33 3 -145 155 -146 155 53 50 c29 28 90 85 136 128 l82 77 -36
0 c-32 0 -49 -12 -150 -106 l-114 -106 0 106 0 106 -30 0 -30 0 0 -285z"/>
<path d="M4130 1123 c0 -17 232 -553 239 -553 4 0 48 90 97 200 48 109 90 197
92 195 3 -2 43 -91 91 -197 47 -106 91 -192 96 -191 9 2 243 525 244 546 1 5
-15 7 -35 5 l-35 -3 -78 -180 c-105 -245 -94 -231 -125 -160 -15 33 -54 124
-89 202 -34 78 -66 141 -70 140 -5 -1 -47 -91 -95 -200 -48 -108 -89 -197 -92
-197 -3 0 -44 90 -90 200 l-83 200 -34 0 c-18 0 -33 -3 -33 -7z"/>
<path d="M2084 531 c-38 -16 -64 -60 -64 -107 0 -106 124 -152 201 -74 24 23
29 37 29 74 0 64 -38 106 -100 112 -25 2 -55 0 -66 -5z"/>
</g>
</svg>
