<?xml version="1.0" encoding="UTF-8"?>
<svg width="52px" height="58px" viewBox="0 0 52 58" version="1.1" xmlns="http://www.w3.org/2000/svg" xmlns:xlink="http://www.w3.org/1999/xlink">
    <!-- Generator: Sketch 57.1 (83088) - https://sketch.com -->
    <title>icons8-css3</title>
    <desc>Created with Sketch.</desc>
    <defs>
        <filter x="-27.3%" y="-24.4%" width="154.7%" height="150.6%" filterUnits="objectBoundingBox" id="filter-1">
            <feOffset dx="0" dy="2" in="SourceAlpha" result="shadowOffsetOuter1"></feOffset>
            <feGaussianBlur stdDeviation="2" in="shadowOffsetOuter1" result="shadowBlurOuter1"></feGaussianBlur>
            <feColorMatrix values="0 0 0 0 0   0 0 0 0 0   0 0 0 0 0  0 0 0 0.5 0" type="matrix" in="shadowBlurOuter1" result="shadowMatrixOuter1"></feColorMatrix>
            <feMerge>
                <feMergeNode in="shadowMatrixOuter1"></feMergeNode>
                <feMergeNode in="SourceGraphic"></feMergeNode>
            </feMerge>
        </filter>
    </defs>
    <g id="Page-1" stroke="none" stroke-width="1" fill="none" fill-rule="evenodd">
        <g id="Desktop" transform="translate(-656.000000, -1591.000000)" fill-rule="nonzero">
            <g id="SKILLS" transform="translate(1.000000, 1241.000000)">
                <g id="Icone" transform="translate(659.000000, 208.000000)">
                    <g id="icons8-css3" filter="url(#filter-1)" transform="translate(0.000000, 144.827586)">
                        <polygon id="Path" fill="#0277BD" points="43.9655172 0 0 0 3.87931034 43.9655172 21.9827586 49.137931 40.0862069 43.9655172"></polygon>
                        <polygon id="Path" fill="#039BE5" points="21.9827586 3.87931034 21.9827586 45.1293103 36.4655172 40.9913793 39.6982759 3.87931034"></polygon>
                        <polygon id="Path" fill="#FFFFFF" points="33.75 10.3448276 21.9827586 10.3448276 21.9827586 15.5172414 28.3189655 15.5172414 27.9310345 20.6896552 21.9827586 20.6896552 21.9827586 25.862069 27.6724138 25.862069 27.2844828 31.6810345 21.9827586 33.4913793 21.9827586 38.9224138 32.1982759 35.5603448 33.1034483 20.6896552 33.1034483 20.6896552"></polygon>
                        <path d="M21.9827586,10.3448276 L21.9827586,15.5172414 L10.4741379,15.5172414 L10.0862069,10.3448276 L21.9827586,10.3448276 Z M16.0344828,20.6896552 L16.2931034,25.862069 L21.9827586,25.862069 L21.9827586,20.6896552 L16.0344828,20.6896552 Z M16.5517241,28.4482759 L11.3793103,28.4482759 L11.7672414,35.5603448 L21.9827586,38.9224138 L21.9827586,33.4913793 L16.6810345,31.6810345 L16.5517241,28.4482759 Z" id="Shape" fill="#EEEEEE"></path>
                    </g>
                </g>
            </g>
        </g>
    </g>
</svg>