<?xml version="1.0" encoding="UTF-8"?>
<svg width="52px" height="51px" viewBox="0 0 52 51" version="1.1" xmlns="http://www.w3.org/2000/svg" xmlns:xlink="http://www.w3.org/1999/xlink">
    <!-- Generator: Sketch 57.1 (83088) - https://sketch.com -->
    <title>adobe-illustrator-cc</title>
    <desc>Created with Sketch.</desc>
    <defs>
        <filter x="-27.3%" y="-28.1%" width="154.7%" height="156.7%" filterUnits="objectBoundingBox" id="filter-1">
            <feOffset dx="0" dy="2" in="SourceAlpha" result="shadowOffsetOuter1"></feOffset>
            <feGaussianBlur stdDeviation="2" in="shadowOffsetOuter1" result="shadowBlurOuter1"></feGaussianBlur>
            <feColorMatrix values="0 0 0 0 0   0 0 0 0 0   0 0 0 0 0  0 0 0 0.5 0" type="matrix" in="shadowBlurOuter1" result="shadowMatrixOuter1"></feColorMatrix>
            <feMerge>
                <feMergeNode in="shadowMatrixOuter1"></feMergeNode>
                <feMergeNode in="SourceGraphic"></feMergeNode>
            </feMerge>
        </filter>
        <radialGradient cx="32.9351254%" cy="22.4100935%" fx="32.9351254%" fy="22.4100935%" r="78.3749425%" gradientTransform="translate(0.329351,0.224101),scale(0.969697,1.000000),translate(-0.329351,-0.224101)" id="radialGradient-2">
            <stop stop-color="#423325" stop-opacity="0.98" offset="0%"></stop>
            <stop stop-color="#1C0A00" offset="100%"></stop>
        </radialGradient>
    </defs>
    <g id="Page-1" stroke="none" stroke-width="1" fill="none" fill-rule="evenodd">
        <g id="Desktop" transform="translate(-934.000000, -1447.000000)" fill-rule="nonzero">
            <g id="SKILLS" transform="translate(1.000000, 1241.000000)">
                <g id="Icone" transform="translate(659.000000, 208.000000)">
                    <g id="adobe-illustrator-cc" filter="url(#filter-1)" transform="translate(278.021724, 0.000000)">
                        <polygon id="Path" fill="url(#radialGradient-2)" points="2.44252874 1.22126437 42.7442529 1.22126437 42.7442529 40.3017241 2.44252874 40.3017241"></polygon>
                        <path d="M1.83187193,1.82664978 L42.1336453,1.82664978 L42.1336453,40.9175295 L1.83187193,40.9175295 L1.83187193,1.82664978 Z M0,42.7442529 L43.9655172,42.7442529 L43.9655172,0 L0,0 L0,42.7442529 Z M28.7973843,15.2344786 C28.7973843,15.0883643 28.8523338,15.0152335 29.0172562,15.0152335 L31.8933165,15.0152335 C32.0397747,15.0152335 32.1131145,15.0700264 32.1131145,15.2344786 L32.1131145,29.6469906 C32.1131145,29.7930313 32.0764815,29.8661621 31.8933165,29.8661621 L29.0538892,29.8661621 C28.8707241,29.8661621 28.8157008,29.7748406 28.8157008,29.6287263 L28.8157008,15.2344786 L28.7973843,15.2344786 Z M28.5959027,11.087896 C28.5959027,9.91883423 29.4202192,9.22471762 30.4644815,9.22471762 C31.5819359,9.22471762 32.3329864,9.97362709 32.3329864,11.087896 C32.3329864,12.2934863 31.5453029,12.9510743 30.4278485,12.9510743 C29.3652697,12.951148 28.5959027,12.2934863 28.5959027,11.087896 Z M20.3523682,21.2442396 C19.8395061,19.216609 18.6304692,14.796062 18.1724089,12.6588457 L18.1357759,12.6588457 C17.7510554,14.796062 16.7802069,18.412833 16.0108399,21.2442396 L20.3523682,21.2442396 L20.3523682,21.2442396 Z M15.2597155,24.2034962 L13.8124902,29.6835192 C13.7758571,29.8295598 13.7209076,29.8660884 13.5377426,29.8660884 L10.8448473,29.8660884 C10.6616822,29.8660884 10.6249754,29.8112955 10.6616822,29.5921241 L15.864234,11.4349175 C15.9558165,11.1061603 16.010766,10.813858 16.047399,9.91883423 C16.047399,9.79098421 16.1023485,9.73619134 16.1939311,9.73619134 L20.0409138,9.73619134 C20.1691293,9.73619134 20.2240788,9.77271992 20.2607857,9.91883423 L26.0861724,29.6286527 C26.1228054,29.7746933 26.0861724,29.8660884 25.9396404,29.8660884 L22.8986577,29.8660884 C22.7521256,29.8660884 22.6604693,29.8295598 22.6239101,29.7017835 L21.1217352,24.2034962 L15.2597155,24.2034962 L15.2597155,24.2034962 Z" id="Shape" fill="#FF7F18"></path>
                    </g>
                </g>
            </g>
        </g>
    </g>
</svg>